STARTFONT 2.1
COMMENT 
COMMENT This file has been produced by ttf2bdf written by Subhabrata Biswas
COMMENT 
COMMENT For comments, questions, bug reports, send a mail to
COMMENT                                           subhabrata.biswas@usa.net
COMMENT 
FONT -*-Cooper Black-Medium-R-Normal--48-360-96-96-c-25--fontspecific
SIZE 36 96 96
FONTBOUNDINGBOX 67 55 -8 -12
STARTPROPERTIES 15
FOUNDRY "Misc"
FAMILY_NAME "Cooper Black"
WEIGHT_NAME "Medium"
SLANT "R"
SETWIDTH_NAME "Normal"
PIXEL_SIZE 23
POINT_SIZE 360
RESOLUTION_X 96
RESOLUTION_Y 96
SPACING "C"
CHARSET_ENCODING "fontspecific"
FONT_ASCENT 44
FONT_DESCENT 11
DEFAULT_CHAR 31
COPYRIGHT "You may wish to put your copyright here"
ENDPROPERTIES
CHARS 226
STARTCHAR C0030
ENCODING 30
SWIDTH 250 0
DWIDTH 12 0
BBX 9 32 1 0
BITMAP
FF80
8080
8080
8080
8080
8080
8080
8080
8080
8080
8080
8080
8080
8080
8080
8080
8080
8080
8080
8080
8080
8080
8080
8080
8080
8080
8080
8080
8080
8080
8080
FF80
ENDCHAR
STARTCHAR C0031
ENCODING 31
SWIDTH 250 0
DWIDTH 12 0
BBX 9 32 1 0
BITMAP
FF80
8080
8080
8080
8080
8080
8080
8080
8080
8080
8080
8080
8080
8080
8080
8080
8080
8080
8080
8080
8080
8080
8080
8080
8080
8080
8080
8080
8080
8080
8080
FF80
ENDCHAR
STARTCHAR C0032- 
ENCODING 32
SWIDTH 250 0
DWIDTH 12 0
BBX 1 1 0 -1
BITMAP
00
ENDCHAR
STARTCHAR C0033-!
ENCODING 33
SWIDTH 312 0
DWIDTH 15 0
BBX 11 33 2 -1
BITMAP
1F00
3F80
7FC0
7FC0
FFE0
FFE0
FFE0
FFE0
FFE0
FFE0
FFE0
7FC0
7FC0
7FC0
3F80
3F80
1F80
1F00
0E00
0400
0000
0000
0000
1E00
7F80
7F80
FFC0
FFC0
FFC0
FFC0
7F80
7F80
1E00
ENDCHAR
STARTCHAR C0034-"
ENCODING 34
SWIDTH 437 0
DWIDTH 21 0
BBX 18 15 1 18
BITMAP
3C0F00
7E1F80
FE3F80
FF3FC0
FF3FC0
FF3FC0
FF3FC0
FF3FC0
FF3FC0
7E1F80
7E1F80
7E1F80
3C0F00
3C0F00
180600
ENDCHAR
STARTCHAR C0035-#
ENCODING 35
SWIDTH 604 0
DWIDTH 29 0
BBX 23 31 2 -1
BITMAP
003030
00F0F0
01F1F0
01F1F0
01E1E0
01E1E0
01E1E0
01E1E0
1FFFFE
1FFFFE
3FFFFC
7FFFFC
7FFFF8
03C3C0
03C3C0
07C7C0
07C7C0
3FFFFC
7FFFFC
7FFFF8
FFFFF8
FFFFF0
0F8F80
0F0F00
0F0F00
0F0F00
0F0F00
1F1F00
1F1F00
1E1E00
181800
ENDCHAR
STARTCHAR C0036-$
ENCODING 36
SWIDTH 604 0
DWIDTH 29 0
BBX 26 37 1 -5
BITMAP
003E0000
003E0000
003E0000
003E0000
003E0000
01FFDC00
07FFFE00
0FFFFF00
1FFFFF00
3FFFFF80
3FF0FF80
7FE03F80
7FE01F80
7FF00700
7FFE0000
7FFFC000
7FFFF800
3FFFFE00
3FFFFF00
1FFFFF80
0FFFFF80
03FFFFC0
60FFFFC0
F03FFFC0
F803FFC0
FC00FFC0
FE00FFC0
7F81FF80
7FFFFF00
7FFFFE00
3FFFFC00
1FFFF800
01FFC000
003E0000
003E0000
003E0000
003E0000
ENDCHAR
STARTCHAR C0037-%
ENCODING 37
SWIDTH 812 0
DWIDTH 39 0
BBX 38 34 0 -1
BITMAP
01F8003C00
0FFE003C00
1FFF807C00
3FFFC07800
7E3FC0F000
7E1FE0F000
FE1FE1E000
FE0FE1C000
FE0FE3C000
FF0FE78000
FF0FC78000
7F8FCF0000
7FFF8F0000
3FFF1E0000
1FFE1C0000
07F03C0000
0000780000
0000780000
0000F03F00
0000F1FFC0
0001E3FFF0
0003E7FFF8
0003CFC7F8
00078FC3FC
00079FC3FC
000F1FC1FC
000F1FC1FC
001E1FE1FC
003E1FE1F8
003C0FF1F8
007C0FFFF0
00F807FFE0
00F803FFC0
007000FE00
ENDCHAR
STARTCHAR C0038-&
ENCODING 38
SWIDTH 875 0
DWIDTH 42 0
BBX 41 33 0 0
BITMAP
001FE0000000
00FFF8000000
01FFFC01F800
07FFFE03FE00
0FFFFE07FF00
0FFC3E0FFF00
1FF81C0FFF80
1FF80001FF80
1FF80001FF80
1FF80003FF80
1FFC000FFF00
0FFFC03FFF00
0FFFC1FFFE00
07FFC3FFFC00
1FFFC7FFF800
3FFF8FFFE000
7FFF0FFFE000
7FF01FFFE000
FFF01FFFF800
FFF01F0FF800
FFF01E07FC00
FFF80C07FC00
FFF80007FC00
FFFC0007FC00
7FFE000FF800
7FFF001FF800
3FFFE07FF000
1FFFFFFFE000
0FFFFFFFC000
07FFFFFF8000
01FFFFFE0000
007FFFF00000
0007FF800000
ENDCHAR
STARTCHAR C0039-'
ENCODING 39
SWIDTH 229 0
DWIDTH 11 0
BBX 8 15 1 18
BITMAP
3C
7E
FE
FF
FF
FF
FF
FF
FF
7E
7E
7E
3C
3C
18
ENDCHAR
STARTCHAR C0040-(
ENCODING 40
SWIDTH 500 0
DWIDTH 24 0
BBX 20 42 3 -9
BITMAP
001FC0
00FFF0
01FFF0
03FFF0
07FFF0
0FFC00
1FF800
1FF000
3FF000
3FE000
3FE000
7FE000
7FE000
7FE000
7FC000
FFC000
FFC000
FFC000
FFC000
FFC000
FFC000
FFC000
FFC000
FFC000
FFC000
FFC000
7FC000
7FC000
7FE000
7FE000
3FE000
3FE000
3FF000
1FF000
0FF000
0FF800
07FC00
03FFF0
01FFF0
00FFF0
007FF0
000FC0
ENDCHAR
STARTCHAR C0041-)
ENCODING 41
SWIDTH 500 0
DWIDTH 24 0
BBX 20 42 0 -9
BITMAP
3F0000
FFE000
FFF000
FFF800
FFFC00
03FE00
01FF00
01FF00
00FF80
00FFC0
007FC0
007FC0
007FE0
007FE0
003FE0
003FE0
003FF0
003FF0
003FF0
003FF0
003FF0
003FF0
003FF0
003FF0
003FF0
003FF0
003FF0
003FF0
007FE0
007FE0
007FE0
007FC0
007FC0
00FFC0
00FF80
01FF80
03FF00
FFFE00
FFFC00
FFF800
FFF000
3F8000
ENDCHAR
STARTCHAR C0042-*
ENCODING 42
SWIDTH 604 0
DWIDTH 29 0
BBX 19 19 5 14
BITMAP
01F000
01F000
01F000
01F000
01F000
71F1C0
7DF7C0
FFFFE0
FFFFE0
FFFFE0
1FFF00
07FC00
07FC00
0FFE00
1FBF00
3FBF80
3F1F80
1E0F00
0C0600
ENDCHAR
STARTCHAR C0043-+
ENCODING 43
SWIDTH 604 0
DWIDTH 29 0
BBX 23 23 3 2
BITMAP
001C00
007C00
007C00
007C00
007C00
007C00
007C00
007C00
007C00
3FFFFE
7FFFFE
7FFFFE
FFFFFC
FFFFFC
007C00
007C00
007C00
007C00
007C00
007C00
007C00
007800
006000
ENDCHAR
STARTCHAR C0044-,
ENCODING 44
SWIDTH 291 0
DWIDTH 14 0
BBX 11 19 1 -9
BITMAP
1E00
3F80
7FC0
FFC0
FFE0
FFE0
FFE0
FFE0
7FE0
3FE0
1FE0
07C0
07C0
07C0
0F80
0F80
1F00
1F00
0E00
ENDCHAR
STARTCHAR C0045--
ENCODING 45
SWIDTH 291 0
DWIDTH 14 0
BBX 13 8 0 9
BITMAP
3FF8
3FF8
7FF8
7FF8
7FF0
FFF0
FFF0
FFE0
ENDCHAR
STARTCHAR C0046-.
ENCODING 46
SWIDTH 291 0
DWIDTH 14 0
BBX 11 11 1 -1
BITMAP
1F00
3F80
7FC0
FFE0
FFE0
FFE0
FFE0
FFE0
7FC0
3F80
1F00
ENDCHAR
STARTCHAR C0047-/
ENCODING 47
SWIDTH 479 0
DWIDTH 23 0
BBX 23 42 -2 -9
BITMAP
00003C
00003E
00007E
00007E
0000FC
0000FC
0001F8
0001F8
0001F0
0003F0
0003E0
0007E0
0007C0
000FC0
000F80
001F80
001F00
001F00
003E00
003E00
007C00
007C00
00FC00
00F800
01F800
01F000
03F000
03E000
07E000
07C000
0FC000
0F8000
1F8000
1F8000
3F0000
3F0000
7E0000
7E0000
FC0000
FC0000
FC0000
780000
ENDCHAR
STARTCHAR C0048-0
ENCODING 48
SWIDTH 604 0
DWIDTH 29 0
BBX 26 28 1 -1
BITMAP
007F0000
03FFC000
07FFF000
0FFFF800
1FFFFC00
3FFFFE00
3FFFFF00
7FE7FF00
7FC3FF80
FFC1FF80
FFC1FF80
FFC1FFC0
FFC0FFC0
FFC0FFC0
FFC0FFC0
FFE0FFC0
FFE0FFC0
FFE0FFC0
7FE0FF80
7FF0FF80
7FF9FF80
3FFFFF00
3FFFFF00
1FFFFE00
0FFFFC00
07FFF800
01FFE000
007F8000
ENDCHAR
STARTCHAR C0049-1
ENCODING 49
SWIDTH 604 0
DWIDTH 29 0
BBX 24 28 2 -1
BITMAP
000FF8
00FFFC
07FFFC
1FFFFC
3FFFF0
7FFFE0
7FFFC0
7FFFC0
01FFC0
01FFC0
01FFC0
01FFC0
01FFC0
01FFC0
01FFC0
01FFC0
01FFC0
01FFC0
01FFC0
01FFC0
03FFC0
07FFE0
7FFFFE
FFFFFF
FFFFFF
FFFFFF
7FFFFE
07FFE0
ENDCHAR
STARTCHAR C0050-2
ENCODING 50
SWIDTH 604 0
DWIDTH 29 0
BBX 27 29 0 -2
BITMAP
003FE000
01FFF800
07FFFE00
1FFFFF00
3FFFFF00
7FFFFF80
7FFFFF80
FFFFFF80
FE3FFF80
F81FFF80
701FFF00
001FFF00
001FFE00
003FFC00
007FFC00
007FF800
00FFF000
01FFE000
03FFC0C0
03FF81E0
07FFC7E0
0FFFFFE0
1FFFFFE0
3FFFFFE0
7FFFFFC0
FFFFFFC0
FFFFFF80
00000F80
00000700
ENDCHAR
STARTCHAR C0051-3
ENCODING 51
SWIDTH 604 0
DWIDTH 29 0
BBX 27 32 0 -5
BITMAP
00FF8000
07FFF000
1FFFF800
3FFFFC00
7FFFFE00
7FFFFE00
78FFFE00
207FFE00
003FFC00
003FF800
003FF000
007FF000
00FFFE00
03FFFF00
0FFFFFC0
0FFFFFC0
0FFFFFE0
07FFFFE0
000FFFE0
0007FFE0
0003FFE0
0003FFE0
0003FFE0
0007FFC0
0007FFC0
701FFF80
FFFFFF00
FFFFFF00
FFFFFC00
7FFFF800
3FFFE000
07FE0000
ENDCHAR
STARTCHAR C0052-4
ENCODING 52
SWIDTH 604 0
DWIDTH 29 0
BBX 27 33 0 -4
BITMAP
00003C00
0000FE00
0001FE00
0003FE00
0007FE00
000FFE00
001FFE00
003FFE00
007FFE00
007FFE00
00FFFE00
01E7FE00
03C7FE00
0787FE00
0F07FE00
0E07FE00
1C07FE00
3C07FE00
3807FE00
7807FFE0
FFFFFFE0
FFFFFFE0
FFFFFFE0
FFFFFFE0
FFFFFFE0
FFFFFFE0
7FFFFFE0
0007FF00
0007FF00
0007FF00
0007FF00
0007FF00
0007FF00
ENDCHAR
STARTCHAR C0053-5
ENCODING 53
SWIDTH 604 0
DWIDTH 29 0
BBX 26 32 1 -5
BITMAP
07FFFFC0
07FFFFC0
0FFFFFC0
0FFFFFC0
1FFFFFC0
1FFFFF80
1FFFFF80
3FFFFF00
3FC00000
3FC00000
7FC00000
7FFE0000
7FFFE000
7FFFF800
FFFFFE00
FFFFFF00
FFFFFF80
FFFFFF80
1FFFFFC0
00FFFFC0
003FFFC0
001FFFC0
000FFFC0
000FFFC0
001FFF80
703FFF00
FFFFFF00
FFFFFE00
FFFFFC00
FFFFF000
3FFFC000
0FFC0000
ENDCHAR
STARTCHAR C0054-6
ENCODING 54
SWIDTH 604 0
DWIDTH 29 0
BBX 26 32 1 -1
BITMAP
00780000
00FF0000
01FF8000
03FF8000
07FF0000
07FE0000
0FFC0000
1FFC0000
1FF80000
3FF80000
3FF9F800
7FFFFC00
7FFFFF00
7FFFFF00
FFFFFF80
FFFFFF80
FFFFFFC0
FFF3FFC0
FFE1FFC0
FFE1FFC0
FFE0FFC0
FFE0FFC0
7FE0FFC0
7FF0FF80
7FF0FF80
3FF9FF00
1FFFFF00
1FFFFE00
0FFFFC00
07FFF800
01FFF000
007F8000
ENDCHAR
STARTCHAR C0055-7
ENCODING 55
SWIDTH 604 0
DWIDTH 29 0
BBX 26 34 1 -6
BITMAP
1C000000
3FFFFFC0
7FFFFFC0
7FFFFFC0
FFFFFFC0
FFFFFF80
FFFFFF80
FFFFFF80
FFFFFF00
FE00FF00
7C007F00
38007E00
0000FE00
0000FE00
0001FC00
0001FC00
0003FC00
0003F800
0007F800
0007F800
000FF800
000FF000
001FF000
001FF000
003FE000
003FE000
007FE000
007FC000
00FFC000
00FFC000
01FF8000
01FF8000
00FF8000
003F0000
ENDCHAR
STARTCHAR C0056-8
ENCODING 56
SWIDTH 604 0
DWIDTH 29 0
BBX 26 31 1 -1
BITMAP
007FC000
03FFF800
0FFFFE00
1FFFFF00
3FFFFF80
3FF8FFC0
7FF03FC0
7FF03FC0
7FF83FC0
7FFC3FC0
7FFF7F80
7FFFFF00
3FFFFE00
1FFFFC00
0FFFFE00
0FFFFF00
1FFFFF80
3FFFFF80
7FFFFFC0
FF1FFFC0
FF07FFC0
FF03FFC0
FF01FFC0
FF81FFC0
7F81FF80
7FE3FF80
3FFFFF00
1FFFFE00
0FFFFC00
03FFF800
007FC000
ENDCHAR
STARTCHAR C0057-9
ENCODING 57
SWIDTH 604 0
DWIDTH 29 0
BBX 26 33 1 -6
BITMAP
007F8000
03FFF000
0FFFFC00
1FFFFE00
3FFFFF00
7FFFFF80
7FFFFF80
FFF3FF80
FFE1FFC0
FFE1FFC0
FFE0FFC0
FFE0FFC0
FFE0FFC0
FFF0FFC0
FFF0FFC0
7FF9FF80
7FFFFF80
3FFFFF80
3FFFFF80
1FFFFF00
0FFFFF00
03FFFE00
000FFE00
000FFC00
001FF800
001FF800
003FF000
007FE000
00FFC000
03FF8000
01FF0000
00FE0000
003C0000
ENDCHAR
STARTCHAR C0058-:
ENCODING 58
SWIDTH 291 0
DWIDTH 14 0
BBX 11 24 1 -1
BITMAP
1F00
3F80
7FC0
FFE0
FFE0
FFE0
FFE0
FFE0
7FC0
3F80
1F00
0000
0000
1F00
3F80
7FC0
FFE0
FFE0
FFE0
FFE0
FFE0
7FC0
3F80
1F00
ENDCHAR
STARTCHAR C0059-;
ENCODING 59
SWIDTH 291 0
DWIDTH 14 0
BBX 11 32 1 -9
BITMAP
1F00
3F80
7FC0
FFE0
FFE0
FFE0
FFE0
FFE0
7FC0
3F80
1F00
0000
0000
1E00
3F80
7FC0
FFC0
FFE0
FFE0
FFE0
FFE0
7FE0
3FE0
1FE0
07C0
07C0
07C0
0F80
0F80
1F00
1F00
0E00
ENDCHAR
STARTCHAR C0060-<
ENCODING 60
SWIDTH 500 0
DWIDTH 24 0
BBX 21 33 1 0
BITMAP
000008
000038
000078
0001F8
0007F8
001FF8
003FF8
00FFF8
03FFF8
0FFFF8
1FFFF0
7FFFE0
FFFF80
FFFE00
FFFC00
FFF000
FFC000
FFF000
FFFC00
FFFE00
FFFF80
7FFFE0
1FFFF8
07FFF8
03FFF8
00FFF8
003FF8
001FF8
0007F8
0001F8
000078
000038
000008
ENDCHAR
STARTCHAR C0061-=
ENCODING 61
SWIDTH 604 0
DWIDTH 29 0
BBX 23 13 3 7
BITMAP
3FFFFE
7FFFFE
7FFFFE
FFFFFC
FFFFFC
000000
000000
000000
3FFFFE
7FFFFE
7FFFFE
FFFFFC
FFFFFC
ENDCHAR
STARTCHAR C0062->
ENCODING 62
SWIDTH 500 0
DWIDTH 24 0
BBX 21 33 1 0
BITMAP
800000
E00000
F00000
FC0000
FF0000
FFC000
FFE000
FFF800
FFFE00
FFFF00
FFFFC0
3FFFF0
0FFFF8
03FFF8
01FFF8
007FF8
001FF8
007FF8
01FFF8
03FFF8
0FFFF8
3FFFF0
7FFFC0
FFFF80
FFFE00
FFF800
FFE000
FFC000
FF0000
FC0000
F00000
E00000
800000
ENDCHAR
STARTCHAR C0063-?
ENCODING 63
SWIDTH 479 0
DWIDTH 23 0
BBX 22 33 0 -1
BITMAP
01FC00
07FF80
1FFFC0
3FFFF0
7FFFF0
7F9FF8
FF9FFC
FF9FFC
FF9FFC
FF1FFC
7F3FFC
3C3FFC
007FF8
00FFF0
00FFE0
01FF80
01FE00
01FC00
01F800
01F800
00F000
000000
000000
00F000
03FC00
03FC00
07FE00
07FE00
07FE00
07FE00
03FC00
03FC00
00F000
ENDCHAR
STARTCHAR C0064-@
ENCODING 64
SWIDTH 791 0
DWIDTH 38 0
BBX 35 34 1 -1
BITMAP
0000FF8000
0007FFF000
001FFFFC00
007FFFFE00
00FF007F00
01FC001F80
03F0000F80
07C00007C0
0F81F0F3C0
0F03FFF3E0
1F0FFFF1E0
3E1FFFF1E0
3C1FEFE1E0
7C3FCFE1E0
787F8FE1E0
787F9FE1E0
787F1FE3E0
F0FF1FC3C0
F0FF3FC3C0
F0FF7FC780
F0FFFFCF80
F0FFFFFF00
F0FFFFFE00
F07FDFFC00
F87F9FF000
781E0FC000
7C00000000
7C00000000
3F0001E000
1FC00FE000
0FFFFFC000
07FFFF8000
01FFFE0000
003FF00000
ENDCHAR
STARTCHAR C0065-A
ENCODING 65
SWIDTH 833 0
DWIDTH 40 0
BBX 39 34 0 -1
BITMAP
0001F00000
0003FC0000
0007FE0000
0007FF0000
000FFF0000
000FFF8000
000FFF8000
000FFFC000
000FFFE000
000FFFE000
000FFFF000
001FFFF000
001FFFF800
001F7FF800
003E3FFC00
003E3FFC00
007E1FFC00
007C1FFE00
00FC1FFE00
00FC0FFF00
00FFFFFF00
01FFFFFF80
01FFFFFF80
03FFFFFFC0
03FFFFFFC0
07FFFFFFC0
07E003FFE0
0FE001FFE0
1FE001FFF0
3FF007FFFC
FFF80FFFFE
FFF80FFFFE
FFF80FFFFC
3FE003FFF0
ENDCHAR
STARTCHAR C0066-B
ENCODING 66
SWIDTH 708 0
DWIDTH 34 0
BBX 31 32 1 0
BITMAP
7FFFFF00
FFFFFFC0
FFFFFFE0
FFFFFFF0
7FFFFFF0
3FFC7FF8
1FFC3FF8
1FFC3FF8
1FFC3FF8
1FFC3FF8
1FFC3FF0
1FFC3FF0
1FFC7FE0
1FFFFFC0
1FFFFFC0
1FFFFFE0
1FFFFFF8
1FFFFFFC
1FFC7FFC
1FFC3FFE
1FFC1FFE
1FFC1FFE
1FFC1FFE
3FFC1FFE
3FFC1FFE
3FFC1FFC
3FFE3FFC
7FFFFFF8
FFFFFFF8
FFFFFFF0
FFFFFFC0
7FFFFF00
ENDCHAR
STARTCHAR C0067-C
ENCODING 67
SWIDTH 729 0
DWIDTH 35 0
BBX 33 34 1 -1
BITMAP
0003FC0000
001FFF0000
007FFFFC00
01FFFFFE00
03FFFFFF00
07FFFFFF00
0FFFFFFF80
1FFE0FFF80
3FFC03FF80
3FF801FF80
7FF000FF80
7FF0007F80
7FF0007F80
FFF0003F00
FFF0001E00
FFF0000000
FFF0000000
FFF0000000
FFF8000000
FFF8000000
FFFC000000
7FFC000000
7FFE000000
7FFF000600
3FFF800F00
3FFFE07F00
1FFFFFFF00
0FFFFFFF00
07FFFFFE00
03FFFFFE00
01FFFFFC00
00FFFFF000
003FFF8000
0007FC0000
ENDCHAR
STARTCHAR C0068-D
ENCODING 68
SWIDTH 812 0
DWIDTH 39 0
BBX 36 33 1 0
BITMAP
7FFFFF0000
FFFFFFF000
FFFFFFF800
FFFFFFFE00
FFFFFFFF00
7FFC1FFF80
3FFC07FF80
1FFC03FFC0
1FFC03FFC0
1FFC01FFE0
1FFC01FFE0
1FFC01FFE0
1FFC00FFF0
1FFC00FFF0
1FFC00FFF0
1FFC00FFF0
1FFC00FFF0
1FFC00FFF0
1FFC00FFF0
1FFC00FFF0
1FFC00FFF0
1FFC00FFE0
1FFC01FFE0
1FFC01FFE0
1FFC01FFC0
1FFC03FFC0
3FFC07FF80
3FFE0FFF00
7FFFFFFF00
FFFFFFFC00
FFFFFFF800
FFFFFFE000
7FFFFF0000
ENDCHAR
STARTCHAR C0069-E
ENCODING 69
SWIDTH 687 0
DWIDTH 33 0
BBX 31 34 1 -1
BITMAP
000000E0
7FFFFFF0
FFFFFFF0
FFFFFFF8
FFFFFFF8
7FFFFFF8
3FFE03F8
1FFC00F8
1FFC0078
1FFC1870
1FFC3C00
1FFC3C00
1FFC3E00
1FFC3E00
1FFFFE00
1FFFFE00
1FFFFE00
1FFFFE00
1FFFFE00
1FFC7E00
1FFC3E00
1FFC3C00
1FFC3C1C
1FFC181E
1FFC003E
1FFC003E
3FFC007E
3FFE01FE
7FFFFFFC
FFFFFFFC
FFFFFFFC
FFFFFFF8
7FFFFFF8
00000070
ENDCHAR
STARTCHAR C0070-F
ENCODING 70
SWIDTH 666 0
DWIDTH 32 0
BBX 31 34 1 -1
BITMAP
3E000070
FFFFFFF8
FFFFFFFC
FFFFFFFC
FFFFFFFE
7FFFFFFE
3FFE03FE
1FFE00FE
1FFC007E
1FFC003E
1FFC0E1C
1FFC1E00
1FFC1F00
1FFC3F00
1FFFFF00
1FFFFF00
1FFFFF00
1FFFFF00
1FFFFF00
1FFC3F00
1FFC1F00
1FFC1E00
1FFC1E00
1FFC0C00
1FFC0000
1FFC0000
1FFC0000
3FFE0000
7FFF0000
FFFF8000
FFFF8000
FFFF8000
7FFF8000
3FFC0000
ENDCHAR
STARTCHAR C0071-G
ENCODING 71
SWIDTH 791 0
DWIDTH 38 0
BBX 36 34 1 -1
BITMAP
0007F80000
003FFF3800
00FFFFFC00
01FFFFFE00
07FFFFFE00
0FFFFFFF00
0FFF07FF00
1FFC01FF00
3FFC00FF00
3FF800FF00
7FF8007E00
7FF0001C00
7FF0000000
FFF0000000
FFF0000000
FFF0000000
FFF003FF80
FFF01FFFE0
FFF03FFFF0
FFF83FFFF0
FFF81FFFE0
7FF803FF80
7FFC01FF00
7FFE01FF00
3FFE01FF00
3FFF03FE00
1FFFC3FE00
0FFFFFFC00
07FFFFFC00
03FFFFF800
01FFFFF000
00FFFFC000
003FFF8000
0007FC0000
ENDCHAR
STARTCHAR C0072-H
ENCODING 72
SWIDTH 791 0
DWIDTH 38 0
BBX 35 34 1 -1
BITMAP
1FFC07FF00
7FFF1FFFC0
FFFFBFFFE0
FFFFBFFFE0
FFFFBFFFE0
7FFF1FFFC0
3FFE0FFF80
1FFC07FF00
1FFC07FF00
1FFC07FF00
1FFC07FF00
1FFC07FF00
1FFC07FF00
1FFFFFFF00
1FFFFFFF00
1FFFFFFF00
1FFFFFFF00
1FFFFFFF00
1FFFFFFF00
1FFE07FF00
1FFC07FF00
1FFC07FF00
1FFC07FF00
1FFC07FF00
1FFC07FF00
1FFC07FF00
1FFC07FF00
3FFE0FFF80
7FFF1FFFC0
FFFFBFFFE0
FFFFBFFFE0
FFFFBFFFE0
7FFF1FFFC0
1FFC07FF00
ENDCHAR
STARTCHAR C0073-I
ENCODING 73
SWIDTH 416 0
DWIDTH 20 0
BBX 17 34 1 -1
BITMAP
0FFC00
7FFF00
FFFF80
FFFF80
FFFF80
7FFF00
3FFE00
1FFC00
1FFC00
1FFC00
1FFC00
1FFC00
1FFC00
1FFC00
1FFC00
1FFC00
1FFC00
1FFC00
1FFC00
1FFC00
1FFC00
1FFC00
1FFC00
1FFC00
1FFC00
1FFC00
1FFC00
3FFE00
7FFF00
FFFF80
FFFF80
FFFF80
7FFF00
1FFC00
ENDCHAR
STARTCHAR C0074-J
ENCODING 74
SWIDTH 625 0
DWIDTH 30 0
BBX 28 34 0 -1
BITMAP
0003FF80
000FFFE0
001FFFF0
001FFFF0
001FFFF0
000FFFE0
0007FFC0
0003FF80
0003FF80
0003FF80
0003FF80
0003FF80
0003FF80
0003FF80
0003FF80
0003FF80
0003FF80
0003FF80
0003FF80
0003FF80
1F03FF80
3FC3FF80
7FE3FF80
FFE3FF80
FFE3FF80
FFE3FF80
FFE3FF00
FFE7FF00
7FFFFE00
7FFFFE00
3FFFFC00
1FFFF800
07FFE000
00FF8000
ENDCHAR
STARTCHAR C0075-K
ENCODING 75
SWIDTH 833 0
DWIDTH 40 0
BBX 38 34 1 -1
BITMAP
1FFC07FF00
7FFF1FFFC0
FFFFBFFFC0
FFFFBFFFC0
FFFF9FFF80
7FFF1FE000
3FFE1FC000
3FFC3F8000
1FF87F8000
1FF87F0000
1FF8FE0000
1FFFFE0000
1FFFFE0000
1FFFFF0000
1FFFFF8000
1FFFFFC000
1FFFFFC000
1FFFFFE000
1FFFFFF000
1FFFFFF800
1FFFFFFC00
1FFFFFFE00
1FFEFFFE00
1FFC7FFF00
1FFC3FFF80
1FFC1FFFC0
3FFC0FFFC0
3FFE0FFFE0
7FFF07FFF8
FFFF83FFFC
FFFF81FFFC
FFFF81FFFC
7FFF00FFF8
3FFC000000
ENDCHAR
STARTCHAR C0076-L
ENCODING 76
SWIDTH 625 0
DWIDTH 30 0
BBX 29 34 1 -1
BITMAP
1FFE0000
7FFF0000
FFFF8000
FFFF8000
FFFF8000
7FFF0000
3FFE0000
1FFC0000
1FFC0000
1FFC0000
1FFC0000
1FFC0000
1FFC0000
1FFC0000
1FFC0000
1FFC0000
1FFC0000
1FFC0000
1FFC0000
1FFC0000
1FFC0000
1FFC0000
1FFC0060
1FFC00F0
1FFC00F8
1FFC01F8
1FFC03F8
1FFE07F8
3FFFFFF8
FFFFFFF0
FFFFFFF0
FFFFFFE0
7FFFFFE0
000003C0
ENDCHAR
STARTCHAR C0077-M
ENCODING 77
SWIDTH 875 0
DWIDTH 42 0
BBX 39 34 1 -1
BITMAP
0FFC000FF8
7FFF003FFC
FFFF003FFE
FFFF807FFE
FFFF807FFE
7FFF80FFFC
3FFFC0FFF8
1FFFC1FFF8
1FFFC1FFF0
1FFFE3FFF0
1FFFE3FFF0
1FFFF3FFF0
1FFFF7FFF0
1FFFF7FFF0
1FFFFFFFF0
1FFFFFFFF0
1FFFFFFFF0
1FFFFFFFF0
1FFFFFFFF0
1FCFFFFFF0
1FCFFF7FF0
1FC7FF7FF0
1FC7FE7FF0
1FC7FE7FF0
1FC3FE7FF0
1FC3FC7FF8
3FC3FC7FF8
3FE1F8FFF8
7FF1F9FFFC
FFF8FBFFFE
FFF8F3FFFE
FFF873FFFE
7FF061FFFC
3FE0007FF0
ENDCHAR
STARTCHAR C0078-N
ENCODING 78
SWIDTH 833 0
DWIDTH 40 0
BBX 37 34 1 -1
BITMAP
3FC0003FE0
7FF000FFF8
FFF800FFF8
FFFC00FFF8
FFFE00FFF8
7FFF007FF0
3FFF803FE0
3FFFC01FE0
1FFFE01FC0
1FFFF01FC0
1FFFF81FC0
1FFFFE1FC0
1FFFFF1FC0
1FFFFFBFC0
1FFFFFFFC0
1FFFFFFFC0
1FFFFFFFC0
1FFFFFFFC0
1FE7FFFFC0
1FC3FFFFC0
1FC1FFFFC0
1FC0FFFFC0
1FC07FFFC0
1FC03FFFC0
1FC00FFFC0
1FC007FFC0
3FC003FFC0
3FE001FFC0
7FF000FFC0
FFF8007FC0
FFF8003FC0
FFF8001FC0
7FF0000F80
3FE0000380
ENDCHAR
STARTCHAR C0079-O
ENCODING 79
SWIDTH 770 0
DWIDTH 37 0
BBX 34 34 1 -1
BITMAP
0007F80000
003FFF0000
00FFFFC000
03FFFFE000
07FFFFF800
0FFFFFF800
1FFFFFFC00
1FFC7FFE00
3FF83FFF00
3FF01FFF00
7FF01FFF80
7FF00FFF80
7FF00FFF80
FFF007FFC0
FFF007FFC0
FFF007FFC0
FFF807FFC0
FFF803FFC0
FFF803FFC0
FFF803FFC0
FFFC03FFC0
7FFC03FFC0
7FFC03FF80
7FFE03FF80
3FFE03FF00
3FFF07FF00
1FFF8FFE00
1FFFFFFE00
0FFFFFFC00
07FFFFF800
03FFFFE000
00FFFFC000
003FFF0000
0007F80000
ENDCHAR
STARTCHAR C0080-P
ENCODING 80
SWIDTH 687 0
DWIDTH 33 0
BBX 30 34 1 -1
BITMAP
0003FC00
7FFFFF80
FFFFFFC0
FFFFFFF0
FFFFFFF0
7FFC7FF8
3FFC3FF8
1FFC1FFC
1FFC1FFC
1FFC1FFC
1FFC1FFC
1FFC1FFC
1FFC1FFC
1FFC1FFC
1FFC3FF8
1FFC7FF8
1FFFFFF0
1FFFFFE0
1FFFFFC0
1FFFFF80
1FFFFC00
1FFC0000
1FFC0000
1FFC0000
1FFC0000
1FFC0000
1FFC0000
3FFE0000
7FFF0000
FFFF8000
FFFF8000
FFFF8000
7FFF0000
1FFC0000
ENDCHAR
STARTCHAR C0081-Q
ENCODING 81
SWIDTH 791 0
DWIDTH 38 0
BBX 35 41 1 -8
BITMAP
0003FC0000
001FFF8000
00FFFFE000
01FFFFF000
03FFFFF800
0FFFFFFC00
0FFFFFFE00
1FFC7FFF00
3FF81FFF80
3FF01FFF80
7FF00FFFC0
7FF007FFC0
7FF007FFC0
FFF007FFE0
FFF003FFE0
FFF003FFE0
FFF803FFE0
FFF803FFE0
FFF801FFE0
FFF801FFE0
FFFC01FFE0
7FFC01FFC0
7FFC01FFC0
7FFE01FFC0
3FFE01FF80
3FFF03FF80
1FFF87FF00
0FFFFFFE00
0FFFFFFE00
07FFFFFC00
03FFFFF000
3FFFFFE000
7FFFFF0000
7FFFFF0000
7FFFFFC060
03FFFFFFE0
007FFFFFE0
001FFFFFC0
0003FFFF80
00007FFF00
00000FF800
ENDCHAR
STARTCHAR C0082-R
ENCODING 82
SWIDTH 770 0
DWIDTH 37 0
BBX 35 34 1 -1
BITMAP
0000FF0000
3FFFFFC000
FFFFFFF000
FFFFFFF800
FFFFFFFC00
7FFE3FFC00
3FFC3FFE00
1FFC1FFE00
1FFC1FFE00
1FFC1FFE00
1FFC1FFE00
1FFC1FFE00
1FFC1FFC00
1FFC3FFC00
1FFC7FF800
1FFFFFF000
1FFFFFC000
1FFFFFE000
1FFFFFF000
1FFFFFF800
1FFC7FFC00
1FFC3FFC00
1FFC3FFE00
1FFC1FFE00
1FFC1FFE00
1FFC1FFF00
1FFC0FFF00
3FFE0FFF00
7FFF0FFF80
FFFF8FFFE0
FFFF87FFE0
FFFF83FFE0
7FFF01FFC0
1FFC00FF00
ENDCHAR
STARTCHAR C0083-S
ENCODING 83
SWIDTH 645 0
DWIDTH 31 0
BBX 28 34 1 -1
BITMAP
003F8000
01FFFF00
03FFFF80
0FFFFFC0
1FFFFFC0
1FFFFFE0
3FFC3FE0
3FF80FE0
7FF807E0
7FF803E0
7FFC01C0
7FFF8000
7FFFF000
7FFFFC00
3FFFFF00
3FFFFF80
1FFFFFC0
1FFFFFE0
0FFFFFE0
03FFFFF0
01FFFFF0
607FFFF0
F00FFFF0
F803FFF0
F800FFF0
FC00FFF0
FE00FFE0
7F81FFE0
7FFFFFC0
7FFFFF80
3FFFFF00
1FFFFE00
07FFF800
007FC000
ENDCHAR
STARTCHAR C0084-T
ENCODING 84
SWIDTH 708 0
DWIDTH 34 0
BBX 33 34 0 -1
BITMAP
0F00003800
1FFFFFFC00
3FFFFFFE00
3FFFFFFF00
7FFFFFFF00
7FFFFFFF80
FFFFFFFF80
FF3FFC7F80
FF1FFC7F80
FE1FFC3F80
FC1FFC1F80
781FFC0F00
001FFC0000
001FFC0000
001FFC0000
001FFC0000
001FFC0000
001FFC0000
001FFC0000
001FFC0000
001FFC0000
001FFC0000
001FFC0000
001FFC0000
001FFC0000
001FFC0000
003FFC0000
003FFE0000
007FFF0000
00FFFF8000
00FFFF8000
00FFFF8000
007FFF0000
001FFC0000
ENDCHAR
STARTCHAR C0085-U
ENCODING 85
SWIDTH 812 0
DWIDTH 39 0
BBX 36 34 1 -1
BITMAP
1FFC007FC0
7FFF01FFF0
FFFF81FFF0
FFFF81FFF0
FFFF81FFF0
7FFF00FFE0
3FFE007FC0
1FFC003F80
1FFC003F80
1FFC003F80
1FFC003F80
1FFC003F80
1FFC003F80
1FFC003F80
1FFC003F80
1FFC003F80
1FFC003F80
1FFC003F80
1FFC003F80
1FFC003F80
1FFC003F80
1FFC003F80
1FFC003F80
1FFE003F80
1FFE007F80
1FFF00FF00
0FFFC1FF00
0FFFFFFF00
07FFFFFE00
03FFFFFC00
01FFFFF800
00FFFFF000
003FFFC000
0007FE0000
ENDCHAR
STARTCHAR C0086-V
ENCODING 86
SWIDTH 812 0
DWIDTH 39 0
BBX 39 34 0 -1
BITMAP
1FFF001FF8
7FFFC07FFE
FFFFE0FFFE
FFFFE0FFFE
7FFFC07FF8
1FFF803FE0
0FFF803FC0
0FFF803F80
07FFC07F80
07FFC07F00
07FFC0FF00
03FFE0FF00
03FFE0FE00
01FFF1FE00
01FFF1FC00
00FFFBFC00
00FFFFF800
007FFFF800
007FFFF000
007FFFF000
003FFFE000
003FFFE000
001FFFC000
001FFFC000
000FFF8000
000FFF8000
000FFF0000
0007FF0000
0007FE0000
0003FE0000
0003FC0000
0001FC0000
0001F80000
0000F00000
ENDCHAR
STARTCHAR C0087-W
ENCODING 87
SWIDTH 1041 0
DWIDTH 50 0
BBX 50 34 0 -1
BITMAP
1FFE07FF80FF00
FFFF9FFFE3FFC0
FFFFBFFFE3FFC0
FFFFBFFFE3FFC0
3FFF1FFFC0FF80
1FFF07FFC07F00
1FFF07FFC07E00
1FFF07FFC07E00
0FFF03FFE0FE00
0FFF83FFE0FC00
0FFF87FFE0FC00
07FF87FFF1FC00
07FFC7FFF1F800
03FFCFFFF9F800
03FFFFFFFFF800
03FFFFFFFFF000
01FFFFFFFFF000
01FFFFFFFFF000
01FFFFBFFFE000
00FFFF9FFFE000
00FFFF1FFFE000
00FFFF1FFFE000
007FFE0FFFC000
007FFE0FFFC000
003FFE0FFF8000
003FFC07FF8000
003FFC07FF8000
001FFC07FF0000
001FF803FF0000
001FF803FF0000
000FF801FE0000
000FF001FE0000
0007F000FC0000
0003E000780000
ENDCHAR
STARTCHAR C0088-X
ENCODING 88
SWIDTH 791 0
DWIDTH 38 0
BBX 37 34 0 -1
BITMAP
0FFF83FF80
7FFFE7FFE0
FFFFEFFFE0
FFFFEFFFE0
7FFFC7FFC0
0FFFC3FC00
07FFE7F000
07FFEFE000
03FFFFE000
01FFFFC000
01FFFF8000
00FFFF0000
007FFF0000
007FFF0000
003FFF0000
001FFF8000
000FFFC000
000FFFC000
000FFFE000
000FFFF000
001FFFF000
003FFFF800
007FFFFC00
007FFFFC00
00FE7FFE00
01FC3FFF00
03F83FFF00
03F81FFF80
0FF81FFFC0
7FFC3FFFF0
FFFE7FFFF8
FFFE7FFFF8
7FFE3FFFF0
3FF01FFFC0
ENDCHAR
STARTCHAR C0089-Y
ENCODING 89
SWIDTH 770 0
DWIDTH 37 0
BBX 36 34 0 -1
BITMAP
1FFF80FFE0
7FFFE3FFF0
FFFFE3FFF0
FFFFE3FFF0
7FFFC1FFE0
1FFFC1FF00
0FFFC1FE00
07FFE3FC00
03FFF7F800
01FFFFF000
00FFFFE000
007FFFC000
007FFF8000
003FFF8000
001FFF0000
001FFF0000
000FFE0000
000FFE0000
000FFE0000
000FFE0000
000FFE0000
000FFE0000
000FFE0000
000FFE0000
000FFE0000
000FFE0000
000FFE0000
001FFF0000
003FFF8000
007FFFC000
007FFFC000
007FFFC000
003FFF8000
000FFE0000
ENDCHAR
STARTCHAR C0090-Z
ENCODING 90
SWIDTH 687 0
DWIDTH 33 0
BBX 31 34 1 -1
BITMAP
18001FF0
3FFFFFF8
3FFFFFF8
7FFFFFF8
7FFFFFF0
FFFFFFE0
FF07FFE0
FC07FFC0
FC07FFC0
F80FFF80
781FFF80
301FFF00
003FFE00
003FFE00
007FFC00
007FFC00
00FFF800
01FFF800
01FFF000
03FFF000
03FFE000
07FFC01C
07FFC03E
0FFF803E
1FFF807E
1FFF00FE
3FFF81FE
3FFFFFFE
7FFFFFFE
7FFFFFFC
FFFFFFFC
FFFFFFF8
FFFFFFF8
00000070
ENDCHAR
STARTCHAR C0091-[
ENCODING 91
SWIDTH 500 0
DWIDTH 24 0
BBX 17 42 6 -9
BITMAP
3FFE00
7FFF80
7FFF80
FFFF80
FF8000
FF8000
FF8000
FF8000
FF8000
FF8000
FF8000
FF8000
FF8000
FF8000
FF8000
FF8000
FF8000
FF8000
FF8000
FF8000
FF8000
FF8000
FF8000
FF8000
FF8000
FF8000
FF8000
FF8000
FF8000
FF8000
FF8000
FF8000
FF8000
FF8000
FF8000
FF8000
FF8000
FFC000
FFFF80
7FFF80
7FFF80
3FFE00
ENDCHAR
STARTCHAR C0092-\
ENCODING 92
SWIDTH 479 0
DWIDTH 23 0
BBX 23 42 2 -9
BITMAP
780000
F80000
FC0000
FC0000
7E0000
7E0000
3F0000
1F0000
1F0000
1F8000
0F8000
0FC000
07C000
07E000
03E000
03F000
01F000
01F000
00F800
00F800
007C00
007C00
003E00
003E00
003F00
001F00
001F80
000F80
000FC0
0007C0
0007C0
0003E0
0003E0
0001F0
0001F8
0000F8
0000FC
0000FC
00007E
00007E
00003E
00003C
ENDCHAR
STARTCHAR C0093-]
ENCODING 93
SWIDTH 500 0
DWIDTH 24 0
BBX 17 42 1 -9
BITMAP
3FFE00
FFFF00
FFFF00
FFFF80
01FF80
00FF80
00FF80
00FF80
00FF80
00FF80
00FF80
00FF80
00FF80
00FF80
00FF80
00FF80
00FF80
00FF80
00FF80
00FF80
00FF80
00FF80
00FF80
00FF80
00FF80
00FF80
00FF80
00FF80
00FF80
00FF80
00FF80
00FF80
00FF80
00FF80
00FF80
00FF80
00FF80
00FF80
FFFF80
FFFF00
FFFF00
3FFE00
ENDCHAR
STARTCHAR C0094-^
ENCODING 94
SWIDTH 500 0
DWIDTH 24 0
BBX 23 17 0 15
BITMAP
03FF80
07FFC0
07FFC0
07FFC0
0FFFE0
0FFFE0
0FFFE0
1FEFF0
1FEFF0
1FEFF0
3FEFF8
3FC7F8
3FC7F8
7FC7FC
7FC7FC
7F83FC
FF83FE
ENDCHAR
STARTCHAR C0095-_
ENCODING 95
SWIDTH 500 0
DWIDTH 24 0
BBX 24 6 0 -9
BITMAP
FFFFFF
FFFFFF
FFFFFF
FFFFFF
FFFFFF
FFFFFF
ENDCHAR
STARTCHAR C0096-`
ENCODING 96
SWIDTH 500 0
DWIDTH 24 0
BBX 12 8 4 26
BITMAP
3F00
FF80
FF80
FF80
7FE0
3FF0
0FF0
03E0
ENDCHAR
STARTCHAR C0097-a
ENCODING 97
SWIDTH 562 0
DWIDTH 27 0
BBX 25 25 1 -1
BITMAP
007F0000
03FFC000
0FFFF000
1FFFF800
3F9FF800
7F0FFC00
7E0FFC00
7C0FFC00
380FFC00
000FFC00
000FFC00
03FFFC00
0FFFFC00
3FFFFC00
7FEFFC00
7FCFFC00
FFCFFC00
FFCFFC00
FFCFFE00
FFCFFF80
FFFFFF80
7FFFFF80
7FFFFF00
3FF1FE00
0FC0F800
ENDCHAR
STARTCHAR C0098-b
ENCODING 98
SWIDTH 625 0
DWIDTH 30 0
BBX 27 33 1 -1
BITMAP
01F00000
0FF00000
3FF00000
FFF00000
FFF00000
FFF00000
7FF00000
3FF00000
3FF0F800
3FF3FE00
3FF7FF00
3FFFFF80
3FFFFFC0
3FFFFFC0
3FFFFFC0
3FF9FFE0
3FF0FFE0
3FF0FFE0
3FF07FE0
3FF07FE0
3FF07FE0
3FF07FE0
3FF07FE0
3FF07FC0
3FF07FC0
3FF07FC0
3FF07F80
7FF0FF00
7FF9FF00
73FFFE00
01FFF800
007FF000
001FC000
ENDCHAR
STARTCHAR C0099-c
ENCODING 99
SWIDTH 520 0
DWIDTH 25 0
BBX 22 25 1 -1
BITMAP
007F00
03FFC0
07FFF0
0FFFF8
1FFFF8
3FFFFC
7FE3FC
7FE1FC
7FC1FC
FFC1FC
FFC1F8
FFC0F0
FFC000
FFC000
FFE000
FFE000
7FF030
7FF878
7FFFF8
3FFFF8
1FFFF0
1FFFF0
0FFFE0
03FF80
00FE00
ENDCHAR
STARTCHAR C0100-d
ENCODING 100
SWIDTH 645 0
DWIDTH 31 0
BBX 28 33 1 -1
BITMAP
000007C0
00003FC0
0001FFC0
0003FFC0
0003FFC0
0003FFC0
0000FFC0
0000FFC0
00F8FFC0
03FFFFC0
0FFFFFC0
1FFFFFC0
3FFFFFC0
3FF1FFC0
7FE1FFC0
7FE0FFC0
7FC0FFC0
FFC0FFC0
FFC0FFC0
FFC0FFC0
FFC0FFC0
FFC0FFC0
FFC0FFC0
FFC0FFC0
7FE0FFC0
7FE1FFC0
7FF1FFC0
3FFFFFE0
3FFFFFF0
1FFFFFF0
0FFFFFF0
07FC7FC0
01F87E00
ENDCHAR
STARTCHAR C0101-e
ENCODING 101
SWIDTH 520 0
DWIDTH 25 0
BBX 22 25 1 -1
BITMAP
00FE00
03FF80
07FFE0
0FFFF0
1FEFF0
3FC7F8
7FC7F8
7FC7FC
7FC7FC
FFFFFC
FFFFFC
FFFFFC
FFFFF8
FFC000
FFC000
FFC000
7FE000
7FF030
7FF878
3FFFF8
3FFFF8
1FFFF0
0FFFE0
03FF80
00FE00
ENDCHAR
STARTCHAR C0102-f
ENCODING 102
SWIDTH 416 0
DWIDTH 20 0
BBX 20 33 0 -1
BITMAP
01FE00
07FF80
1FFFE0
3FFFE0
3FFFF0
7F1FF0
7F0FF0
7F07E0
7F83C0
7F8000
3FE000
3FF000
1FF800
1FFC00
FFFFE0
FFFFE0
FFFFE0
FFFFE0
FFFFE0
0FFC00
0FFC00
0FFC00
0FFC00
0FFC00
0FFC00
1FFE00
1FFE00
7FFF80
FFFFC0
FFFFC0
FFFFC0
7FFF80
1FFE00
ENDCHAR
STARTCHAR C0103-g
ENCODING 103
SWIDTH 583 0
DWIDTH 28 0
BBX 26 35 1 -9
BITMAP
00000080
000001C0
00FF07C0
03FFFFC0
0FFFFF80
1FE7FF80
3FC7FF00
3FC3FE00
7FC3FE00
7FC3FE00
7FC3FE00
7FC3FE00
7FC3FC00
3FE3FC00
3FE7F800
1FFFF000
0FFFC000
1FFF0000
3F000000
7F000000
FF81FE00
FFFFFF00
FFFFFF80
7FFFFFC0
3FFFFFC0
3FFFFFC0
7FFFFFC0
FFFFFFC0
FE00FF80
FE00FF80
FF81FF00
7FFFFE00
3FFFFC00
1FFFF000
03FF8000
ENDCHAR
STARTCHAR C0104-h
ENCODING 104
SWIDTH 687 0
DWIDTH 33 0
BBX 30 33 1 -1
BITMAP
01F00000
0FF00000
7FF00000
FFF00000
FFF00000
FFF00000
7FF00000
3FF00000
3FF07E00
3FF0FF80
3FF1FFC0
3FF3FFE0
3FFFFFE0
3FFFFFF0
3FFFFFF0
3FF8FFF0
3FF07FF0
3FF03FF0
3FF03FF0
3FF03FF0
3FF03FF0
3FF03FF0
3FF03FF0
3FF03FF0
3FF03FF0
3FF03FF0
7FF87FF8
7FFC7FF8
FFFCFFFC
FFFCFFFC
FFFCFFFC
7FF87FF8
3FF03FF0
ENDCHAR
STARTCHAR C0105-i
ENCODING 105
SWIDTH 354 0
DWIDTH 17 0
BBX 15 33 0 -1
BITMAP
07E0
3FF8
7FF8
FFF8
FFF0
FFE0
3F00
0000
00F8
07F8
3FF8
7FF8
7FF8
7FF8
3FF8
1FF8
1FF8
1FF8
1FF8
1FF8
1FF8
1FF8
1FF8
1FF8
1FF8
1FF8
3FFC
3FFC
7FFE
7FFE
7FFE
7FFC
1FF8
ENDCHAR
STARTCHAR C0106-j
ENCODING 106
SWIDTH 375 0
DWIDTH 18 0
BBX 14 41 -1 -9
BITMAP
03F0
1FFC
3FFC
7FFC
7FF8
7FF0
1F80
0000
007C
07FC
1FFC
3FFC
3FFC
3FFC
1FFC
0FFC
0FFC
0FFC
0FFC
0FFC
0FFC
0FFC
0FFC
0FFC
0FFC
0FFC
0FFC
0FFC
0FFC
0FFC
0FFC
0FFC
0FFC
0FFC
0FFC
0FFC
7FF8
FFF8
FFF0
7FE0
3F00
ENDCHAR
STARTCHAR C0107-k
ENCODING 107
SWIDTH 729 0
DWIDTH 35 0
BBX 34 33 0 -1
BITMAP
00F8000000
07F8000000
3FF8000000
FFF8000000
FFF8000000
FFF8000000
1FF8000000
1FF8000000
1FF81FF000
1FF87FF800
1FF87FFC00
1FF87FFC00
1FF87FF800
1FF87FC000
1FF9FF8000
1FFFFE0000
1FFFFE0000
1FFFFE0000
1FFFFF0000
1FFFFF8000
1FFFFF8000
1FFFFFC000
1FFFFFE000
1FFBFFF000
1FF9FFF800
1FF8FFFC00
3FF87FFE00
3FFC7FFF80
7FFE3FFFC0
7FFE1FFFC0
7FFE0FFFC0
7FFC07FF00
3FF8000000
ENDCHAR
STARTCHAR C0108-l
ENCODING 108
SWIDTH 375 0
DWIDTH 18 0
BBX 15 33 0 -1
BITMAP
00FC
0FFC
7FFC
FFFC
FFFC
FFFC
7FF8
3FF8
1FF8
1FF8
1FF8
1FF8
1FF8
1FF8
1FF8
1FF8
1FF8
1FF8
1FF8
1FF8
1FF8
1FF8
1FF8
1FF8
1FF8
1FF8
3FF8
3FFC
7FFE
7FFE
7FFE
3FFE
1FF8
ENDCHAR
STARTCHAR C0109-m
ENCODING 109
SWIDTH 958 0
DWIDTH 46 0
BBX 43 25 1 -1
BITMAP
01F07E01F800
0FF0FF07FE00
7FF3FF8FFF00
FFF3FF9FFF00
FFFFFFFFFF80
FFFFFFFFFF80
7FFFFFFFFF80
3FF8FFE3FF80
3FF07FC1FF80
3FF07FC1FF80
3FF07FC1FF80
3FF07FC1FF80
3FF07FC1FF80
3FF07FC1FF80
3FF07FC1FF80
3FF07FC1FF80
3FF07FC1FF80
3FF07FC1FF80
7FF8FFE3FFC0
7FF8FFE3FFC0
FFFDFFF7FFE0
FFFDFFF7FFE0
FFFDFFF7FFE0
7FF9FFE3FFC0
3FE0FFC0FF80
ENDCHAR
STARTCHAR C0110-n
ENCODING 110
SWIDTH 666 0
DWIDTH 32 0
BBX 29 25 1 -1
BITMAP
00F07C00
07F1FF00
3FF3FF80
FFF3FFC0
FFFFFFC0
FFFFFFC0
7FFFFFE0
3FF8FFE0
3FF0FFE0
3FF07FE0
3FF07FE0
3FF07FE0
3FF07FE0
3FF07FE0
3FF07FE0
3FF07FE0
3FF07FE0
3FF07FE0
7FF8FFF0
7FF8FFF0
FFFDFFF8
FFFDFFF8
FFFDFFF8
7FF8FFF8
3FF07FE0
ENDCHAR
STARTCHAR C0111-o
ENCODING 111
SWIDTH 604 0
DWIDTH 29 0
BBX 26 25 1 -1
BITMAP
003F8000
01FFF000
03FFF800
0FFFFC00
1FFFFE00
3FFFFF00
3FE7FF80
7FC3FF80
7FC1FF80
FFC1FFC0
FFC1FFC0
FFC1FFC0
FFC0FFC0
FFE0FFC0
FFE0FFC0
FFE0FFC0
FFF0FF80
7FF0FF80
7FF9FF00
3FFFFF00
3FFFFE00
1FFFFC00
0FFFF000
03FFC000
00FF0000
ENDCHAR
STARTCHAR C0112-p
ENCODING 112
SWIDTH 666 0
DWIDTH 32 0
BBX 29 32 1 -8
BITMAP
01F07C00
0FF3FF00
3FF7FFC0
FFFFFFC0
FFFFFFE0
FFFFFFF0
7FFFFFF0
3FF87FF0
3FF83FF8
3FF03FF8
3FF01FF8
3FF01FF8
3FF01FF8
3FF01FF8
3FF01FF8
3FF01FF8
3FF01FF0
3FF03FF0
3FF87FE0
3FFFFFE0
3FFFFFC0
3FFFFF80
3FFFFF00
3FFFFE00
7FF1F800
7FF00000
FFF00000
FFF80000
FFFC0000
7FFC0000
1FFC0000
07F00000
ENDCHAR
STARTCHAR C0113-q
ENCODING 113
SWIDTH 645 0
DWIDTH 31 0
BBX 28 33 1 -9
BITMAP
007F81E0
03FFFFE0
07FFFFE0
1FFFFFE0
1FFFFFE0
3FF1FFE0
7FE1FFE0
7FC0FFC0
FFC0FFC0
FFC0FFC0
FFC0FFC0
FFC0FFC0
FFC0FFC0
FFC0FFC0
FFC0FFC0
FFE0FFC0
FFE0FFC0
7FF0FFC0
7FF1FFC0
3FFFFFC0
3FFFFFC0
1FFFFFC0
0FFFFFC0
07FEFFC0
01F8FFC0
0000FFC0
0000FFC0
0001FFC0
0003FFE0
0003FFF0
0003FFF0
0000FFF0
00003FC0
ENDCHAR
STARTCHAR C0114-r
ENCODING 114
SWIDTH 541 0
DWIDTH 26 0
BBX 24 25 1 -1
BITMAP
01F0F8
1FF1FE
7FF3FE
FFF7FF
FFFFFF
FFFFFF
7FFFFF
3FFFFF
3FFBFE
3FF1FC
3FF0F8
3FF000
3FF000
3FF000
3FF000
3FF000
3FF000
3FF000
7FF800
7FFE00
FFFF00
FFFF00
FFFF00
7FFE00
3FFC00
ENDCHAR
STARTCHAR C0115-s
ENCODING 115
SWIDTH 479 0
DWIDTH 23 0
BBX 20 25 1 -1
BITMAP
03FB80
0FFFC0
1FFFE0
3FFFE0
3FFFF0
7FE3F0
7FE1F0
7FE0E0
7FF000
7FFC00
3FFF00
3FFF80
1FFFC0
0FFFE0
03FFE0
00FFF0
E07FF0
F83FF0
FC3FF0
FFFFF0
7FFFE0
7FFFE0
3FFFC0
3FFF80
00FE00
ENDCHAR
STARTCHAR C0116-t
ENCODING 116
SWIDTH 458 0
DWIDTH 22 0
BBX 21 31 0 -1
BITMAP
003C00
007C00
01FC00
03FC00
07FC00
1FFC00
3FFFF8
FFFFF8
FFFFF8
FFFFF8
FFFFF8
0FFC00
0FFC00
0FFC00
0FFC00
0FFC00
0FFC00
0FFC00
0FFC00
0FFC00
0FFC00
0FFC00
0FFC00
0FFE30
0FFFF8
0FFFF8
07FFF8
07FFF0
03FFE0
01FFC0
007E00
ENDCHAR
STARTCHAR C0117-u
ENCODING 117
SWIDTH 687 0
DWIDTH 33 0
BBX 30 25 1 -1
BITMAP
07F007E0
7FF07FF0
FFF0FFF0
FFF0FFF0
FFF0FFF0
7FF07FF0
3FF03FF0
3FF03FF0
3FF03FF0
3FF03FF0
3FF03FF0
3FF03FF0
3FF03FF0
3FF03FF0
3FF03FF0
3FF03FF0
3FF03FF0
3FF07FF0
3FF87FF0
3FFFFFF8
1FFFFFFC
1FFFFFFC
0FFF3FFC
07FE3FF0
01F83F80
ENDCHAR
STARTCHAR C0118-v
ENCODING 118
SWIDTH 625 0
DWIDTH 30 0
BBX 30 25 0 -1
BITMAP
1FFC07F8
7FFF1FFC
FFFF1FFC
FFFF1FFC
7FFE0FF0
1FFC0FC0
0FFE0FC0
0FFE0F80
07FF1F80
07FF9F00
03FFFF00
03FFFE00
01FFFE00
01FFFC00
00FFFC00
00FFF800
007FF800
007FF000
003FF000
003FE000
001FE000
001FC000
000FC000
00078000
00070000
ENDCHAR
STARTCHAR C0119-w
ENCODING 119
SWIDTH 979 0
DWIDTH 47 0
BBX 47 25 0 -1
BITMAP
1FFC07FF01FC
7FFE1FFFC7FE
FFFF3FFFC7FE
FFFF3FFFC7FE
7FFE1FFF07F8
1FFE0FFE07E0
0FFE0FFF07E0
0FFF0FFF07C0
07FF0FFF8FC0
07FF9FFF9F80
03FFFFFFFF80
01FFFFFFFF00
01FFFFFFFF00
00FFFFFFFE00
00FFFEFFFE00
007FFC7FFC00
007FF87FFC00
003FF83FF800
003FF01FF800
001FF01FF000
001FE00FF000
000FE00FE000
0007C007E000
0007C003C000
000380018000
ENDCHAR
STARTCHAR C0120-x
ENCODING 120
SWIDTH 604 0
DWIDTH 29 0
BBX 28 25 0 -1
BITMAP
1FFE0FE0
7FFF9FF0
FFFF9FF0
FFFF9FE0
7FFF0FC0
0FFF0F80
07FF9F00
03FFFE00
03FFFC00
01FFFC00
00FFF800
00FFF800
01FFF800
01FFFC00
03FFFC00
03FFFE00
07CFFF00
0F8FFF00
0F87FF80
1F07FFC0
7F07FFE0
FF9FFFF0
FF9FFFF0
FF9FFFF0
7F07FFC0
ENDCHAR
STARTCHAR C0121-y
ENCODING 121
SWIDTH 625 0
DWIDTH 30 0
BBX 29 32 0 -8
BITMAP
0FFC07F0
7FFF1FF8
FFFF1FF8
FFFF1FF8
7FFF1FE0
3FFE1FC0
1FFE1F80
0FFF1F80
0FFF1F00
07FF9F00
07FFFF00
03FFFE00
03FFFE00
01FFFE00
01FFFC00
00FFFC00
00FFF800
00FFF800
007FF800
007FF000
003FF000
003FF000
1E1FE000
3F1FE000
7F1FC000
7F1FC000
7F9F8000
7FFF8000
7FFF0000
3FFE0000
1FF80000
07E00000
ENDCHAR
STARTCHAR C0122-z
ENCODING 122
SWIDTH 520 0
DWIDTH 25 0
BBX 22 25 1 -1
BITMAP
180000
3FFFF8
7FFFF8
7FFFF8
FFFFF8
FFFFF0
F0FFF0
F0FFE0
E1FFE0
63FFC0
03FF80
07FF80
07FF00
0FFF00
0FFE00
1FFE18
1FFC3C
3FFC3C
3FFC7C
7FFFFC
7FFFFC
FFFFF8
FFFFF8
7FFFF0
000060
ENDCHAR
STARTCHAR C0123-{
ENCODING 123
SWIDTH 500 0
DWIDTH 24 0
BBX 21 42 2 -9
BITMAP
00FFE0
03FFF8
07FFF8
07FFF8
0FFC00
0FF800
0FF800
0FF800
0FF800
0FF800
0FF800
0FF800
0FF800
0FF800
0FF800
0FF800
0FF800
0FF800
1FF000
7FF000
FFE000
FFE000
7FF000
1FF000
0FF800
0FF800
0FF800
0FF800
0FF800
0FF800
0FF800
0FF800
0FF800
0FF800
0FF800
0FF800
0FF800
0FFC00
07FFF8
07FFF8
03FFF8
00FFE0
ENDCHAR
STARTCHAR C0124-|
ENCODING 124
SWIDTH 500 0
DWIDTH 24 0
BBX 11 40 6 -8
BITMAP
FFE0
FFE0
FFE0
FFE0
FFE0
FFE0
FFE0
FFE0
FFE0
FFE0
FFE0
FFE0
FFE0
FFE0
FFE0
FFE0
FFE0
FFE0
FFE0
FFE0
FFE0
FFE0
FFE0
FFE0
FFE0
FFE0
FFE0
FFE0
FFE0
FFE0
FFE0
FFE0
FFE0
FFE0
FFE0
FFE0
FFE0
FFE0
FFE0
FFE0
ENDCHAR
STARTCHAR C0125-}
ENCODING 125
SWIDTH 500 0
DWIDTH 24 0
BBX 21 42 1 -9
BITMAP
3FF800
FFFE00
FFFF00
FFFF00
01FF80
00FF80
00FF80
00FF80
00FF80
00FF80
00FF80
00FF80
00FF80
00FF80
00FF80
00FF80
00FF80
00FF80
007FC0
007FF0
003FF8
003FF8
007FF0
007FC0
00FF80
00FF80
00FF80
00FF80
00FF80
00FF80
00FF80
00FF80
00FF80
00FF80
00FF80
00FF80
00FF80
01FF80
FFFF00
FFFF00
FFFE00
3FF800
ENDCHAR
STARTCHAR C0126-~
ENCODING 126
SWIDTH 666 0
DWIDTH 32 0
BBX 23 11 4 11
BITMAP
07E020
0FFC70
1FFFF8
3FFFFE
7FFFFE
7FFFFC
FFFFFC
FFFFF8
3FFFF0
1C7FE0
0807C0
ENDCHAR
STARTCHAR C0127
ENCODING 127
SWIDTH 250 0
DWIDTH 12 0
BBX 9 32 1 0
BITMAP
FF80
8080
8080
8080
8080
8080
8080
8080
8080
8080
8080
8080
8080
8080
8080
8080
8080
8080
8080
8080
8080
8080
8080
8080
8080
8080
8080
8080
8080
8080
8080
FF80
ENDCHAR
STARTCHAR C0128
ENCODING 128
SWIDTH 604 0
DWIDTH 29 0
BBX 29 28 0 -1
BITMAP
0007F000
003FFF80
007FFFC0
00FFFFE0
01FFFFF0
03FF07F0
03FE03F0
07FC01F0
07FC00E0
07FC0000
FFFFFC00
FFFFFC00
FFFFFC00
0FFC0000
0FFC0000
FFFFFC00
FFFFFC00
FFFFFC00
07FE0000
07FF0000
03FF8018
03FF8038
01FFE0F8
00FFFFF8
007FFFF0
003FFFE0
001FFF80
0003FC00
ENDCHAR
STARTCHAR C0129
ENCODING 129
SWIDTH 250 0
DWIDTH 12 0
BBX 9 32 1 0
BITMAP
FF80
8080
8080
8080
8080
8080
8080
8080
8080
8080
8080
8080
8080
8080
8080
8080
8080
8080
8080
8080
8080
8080
8080
8080
8080
8080
8080
8080
8080
8080
8080
FF80
ENDCHAR
STARTCHAR C0130
ENCODING 130
SWIDTH 291 0
DWIDTH 14 0
BBX 11 19 1 -9
BITMAP
1E00
3F80
7FC0
FFC0
FFE0
FFE0
FFE0
FFE0
7FE0
3FE0
1FE0
07C0
07C0
07C0
0F80
0F80
1F00
1F00
0E00
ENDCHAR
STARTCHAR C0131
ENCODING 131
SWIDTH 604 0
DWIDTH 29 0
BBX 30 38 -2 -8
BITMAP
00001F80
0000FFE0
0001FFF8
0003FFF8
0007FCFC
000FF8FC
000FF8FC
000FF8FC
000FF870
001FF800
007FFF80
00FFFF80
00FFFF80
00FFFF00
001FF800
001FF000
001FF000
001FF000
001FF000
001FF000
001FF000
001FF000
001FE000
003FE000
003FE000
003FE000
003FE000
003FE000
003FE000
003FC000
787FC000
FC7FC000
FC7F8000
FCFF8000
FFFF0000
7FFE0000
3FF80000
0FE00000
ENDCHAR
STARTCHAR C0132
ENCODING 132
SWIDTH 562 0
DWIDTH 27 0
BBX 24 19 1 -9
BITMAP
1F00F8
3F81FC
7FC3FE
FFC7FE
FFE7FF
FFE7FF
FFE7FF
FFE7FF
7FE3FF
7FE3FF
3FC1FE
0FC07E
0F807C
0F807C
1F00F8
1F00F8
3E01F0
7C03E0
3801C0
ENDCHAR
STARTCHAR C0133
ENCODING 133
SWIDTH 895 0
DWIDTH 43 0
BBX 39 11 2 -1
BITMAP
1F007C01F0
3F80FE03F8
7FC1FF07FC
FFE3FF8FFE
FFE3FF8FFE
FFE3FF8FFE
FFE3FF8FFE
FFE3FF8FFE
7FC1FF07FC
3F80FE03F8
1F007C01F0
ENDCHAR
STARTCHAR C0134
ENCODING 134
SWIDTH 729 0
DWIDTH 35 0
BBX 31 42 2 -9
BITMAP
001FF000
007FFC00
00FFFE00
00FFFE00
00FFFE00
007FFC00
003FF800
001FF000
001FF000
701FF01C
781FF03C
FC1FF07E
FFFFFFFE
FFFFFFFE
FFFFFFFE
FFFFFFFE
FFFFFFFE
FFFFFFFE
FFFFFFFE
FFFFFFFE
FC1FF07E
781FF03C
701FF01C
001FF000
001FF000
001FF000
001FF000
001FF000
001FF000
001FF000
001FF000
001FF000
001FF000
001FF000
003FF000
003FF800
007FFC00
00FFFE00
00FFFE00
00FFFE00
007FFC00
001FF000
ENDCHAR
STARTCHAR C0135
ENCODING 135
SWIDTH 729 0
DWIDTH 35 0
BBX 31 42 2 -9
BITMAP
000FF000
007FFC00
00FFFE00
00FFFE00
007FFC00
003FF800
001FF000
001FF000
001FF000
701FF01C
781FF01C
FC1FF03E
FFFFFFFE
FFFFFFFE
FFFFFFFE
FFFFFFFE
FFFFFFFE
781FF03C
701FF01C
001FF000
001FF000
001FF000
001FF000
701FF01C
781FF03C
FFFFFFFE
FFFFFFFE
FFFFFFFE
FFFFFFFE
FFFFFFFE
F81FF07E
701FF03C
701FF01C
001FF000
001FF000
003FF800
007FFC00
00FFFE00
00FFFE00
00FFFE00
007FFC00
001FE000
ENDCHAR
STARTCHAR C0136
ENCODING 136
SWIDTH 500 0
DWIDTH 24 0
BBX 18 9 3 26
BITMAP
01E000
07F000
0FFC00
1FFE00
3FFF00
7FFF80
FE1FC0
F807C0
700180
ENDCHAR
STARTCHAR C0137
ENCODING 137
SWIDTH 1250 0
DWIDTH 60 0
BBX 59 34 0 -1
BITMAP
01F8001C00000000
0FFE003C00000000
1FFF807C00000000
3FFFC07800000000
7E3FC0F000000000
7E1FE0F000000000
FE1FE1E000000000
FE0FE1E000000000
FE0FE3C000000000
FF0FE3C000000000
FF0FC78000000000
7F8FC70000000000
7FFF8F0000000000
3FFF0E0000000000
1FFE1E0000000000
07F03C0000000000
00003C0000000000
0000780000000000
0000781F8001F800
0000F0FFE00FFE00
0000F1FFF81FFF80
0001E3FFFC3FFFC0
0001E7E3FC7E3FC0
0003C7E1FE7E1FE0
0003CFE1FEFE1FE0
00078FE0FEFE0FE0
000F8FE0FEFE0FE0
000F0FF0FEFF0FE0
001F0FF0FCFF0FC0
001E07F8FC7F8FC0
003E07FFF87FFF80
007C03FFF03FFF00
007C01FFE01FFE00
0038007F0007F000
ENDCHAR
STARTCHAR C0138
ENCODING 138
SWIDTH 645 0
DWIDTH 31 0
BBX 28 45 1 -1
BITMAP
03000C00
07C03E00
07F0FE00
03FFFC00
01FFF800
00FFF000
007FE000
001F8000
000F0000
00000000
00000000
003F8000
01FFFF00
03FFFF80
0FFFFFC0
1FFFFFC0
1FFFFFE0
3FFC3FE0
3FF80FE0
7FF807E0
7FF803E0
7FFC01C0
7FFF8000
7FFFF000
7FFFFC00
3FFFFF00
3FFFFF80
1FFFFFC0
1FFFFFE0
0FFFFFE0
03FFFFF0
01FFFFF0
607FFFF0
F00FFFF0
F803FFF0
F800FFF0
FC00FFF0
FE00FFE0
7F81FFE0
7FFFFFC0
7FFFFF80
3FFFFF00
1FFFFE00
07FFF800
007FC000
ENDCHAR
STARTCHAR C0139
ENCODING 139
SWIDTH 270 0
DWIDTH 13 0
BBX 12 21 1 2
BITMAP
00E0
01F0
03F0
07F0
0FE0
1FC0
3FC0
7F80
7F80
FF00
FF00
FF00
7F80
7F80
3FC0
1FC0
0FE0
07F0
03F0
01F0
0060
ENDCHAR
STARTCHAR C0140
ENCODING 140
SWIDTH 1083 0
DWIDTH 52 0
BBX 50 34 1 -1
BITMAP
000FF000001E00
007FFFFFFFFE00
00FFFFFFFFFF00
03FFFFFFFFFF00
07FFFFFFFFFF80
0FFFFFFFFFFF80
1FFFFFFFE03F80
1FF87FFFC00F80
3FF03FFFC00F80
7FE01FFFC1C700
7FE00FFFC3C000
7FE00FFFC3E000
FFE007FFC3E000
FFE007FFC3E000
FFE003FFFFE000
FFE003FFFFE000
FFF003FFFFE000
FFF001FFFFE000
FFF001FFFFE000
FFF801FFC7E000
7FF801FFC3E000
7FFC01FFC3C000
7FFC01FFC3C380
3FFE01FFC383C0
3FFF03FFC007C0
1FFF87FFC00FC0
1FFFFFFFC00FC0
0FFFFFFFE03FC0
07FFFFFFFFFF80
03FFFFFFFFFF80
00FFFFFFFFFF00
007FFFFFFFFF00
000FFFFFFFFE00
00000000000C00
ENDCHAR
STARTCHAR C0141
ENCODING 141
SWIDTH 250 0
DWIDTH 12 0
BBX 9 32 1 0
BITMAP
FF80
8080
8080
8080
8080
8080
8080
8080
8080
8080
8080
8080
8080
8080
8080
8080
8080
8080
8080
8080
8080
8080
8080
8080
8080
8080
8080
8080
8080
8080
8080
FF80
ENDCHAR
STARTCHAR C0142
ENCODING 142
SWIDTH 250 0
DWIDTH 12 0
BBX 9 32 1 0
BITMAP
FF80
8080
8080
8080
8080
8080
8080
8080
8080
8080
8080
8080
8080
8080
8080
8080
8080
8080
8080
8080
8080
8080
8080
8080
8080
8080
8080
8080
8080
8080
8080
FF80
ENDCHAR
STARTCHAR C0143
ENCODING 143
SWIDTH 250 0
DWIDTH 12 0
BBX 9 32 1 0
BITMAP
FF80
8080
8080
8080
8080
8080
8080
8080
8080
8080
8080
8080
8080
8080
8080
8080
8080
8080
8080
8080
8080
8080
8080
8080
8080
8080
8080
8080
8080
8080
8080
FF80
ENDCHAR
STARTCHAR C0144
ENCODING 144
SWIDTH 250 0
DWIDTH 12 0
BBX 9 32 1 0
BITMAP
FF80
8080
8080
8080
8080
8080
8080
8080
8080
8080
8080
8080
8080
8080
8080
8080
8080
8080
8080
8080
8080
8080
8080
8080
8080
8080
8080
8080
8080
8080
8080
FF80
ENDCHAR
STARTCHAR C0145
ENCODING 145
SWIDTH 291 0
DWIDTH 14 0
BBX 11 19 1 14
BITMAP
0380
07C0
0F80
1F00
1F00
3E00
3E00
7E00
7F80
FFC0
FFC0
FFE0
FFE0
FFE0
FFE0
7FE0
7FC0
3F80
1F00
ENDCHAR
STARTCHAR C0146
ENCODING 146
SWIDTH 291 0
DWIDTH 14 0
BBX 11 19 1 14
BITMAP
1F00
3F80
7FC0
FFC0
FFE0
FFE0
FFE0
FFE0
7FE0
7FE0
3FC0
0FC0
0F80
0F80
1F00
1F00
3E00
7C00
3800
ENDCHAR
STARTCHAR C0147
ENCODING 147
SWIDTH 562 0
DWIDTH 27 0
BBX 24 19 1 14
BITMAP
03801C
07C03E
0F807C
1F00F8
1F00F8
3E01F0
3E01F0
7E03F0
7F83FC
FFC7FE
FFC7FE
FFE7FF
FFE7FF
FFE7FF
FFE7FF
7FE3FF
7FC3FE
3F81FC
1F00F8
ENDCHAR
STARTCHAR C0148
ENCODING 148
SWIDTH 562 0
DWIDTH 27 0
BBX 24 19 1 14
BITMAP
1F00F8
3F81FC
7FC3FE
FFC7FE
FFE7FF
FFE7FF
FFE7FF
FFE7FF
7FE3FF
7FE3FF
3FC1FE
0FC07E
0F807C
0F807C
1F00F8
1F00F8
3E01F0
7C03E0
3801C0
ENDCHAR
STARTCHAR C0149
ENCODING 149
SWIDTH 666 0
DWIDTH 32 0
BBX 13 13 9 10
BITMAP
0F80
3FE0
7FF0
7FF0
FFF8
FFF8
FFF8
FFF8
FFF8
7FF0
7FF0
3FE0
0F80
ENDCHAR
STARTCHAR C0150
ENCODING 150
SWIDTH 604 0
DWIDTH 29 0
BBX 26 8 1 9
BITMAP
3FFFFFC0
3FFFFFC0
7FFFFFC0
7FFFFFC0
7FFFFF80
FFFFFF80
FFFFFF00
FFFFFF00
ENDCHAR
STARTCHAR C0151
ENCODING 151
SWIDTH 854 0
DWIDTH 41 0
BBX 41 8 0 9
BITMAP
3FFFFFFFFF80
3FFFFFFFFF80
7FFFFFFFFF80
7FFFFFFFFF80
7FFFFFFFFF00
FFFFFFFFFF00
FFFFFFFFFE00
FFFFFFFFFE00
ENDCHAR
STARTCHAR C0152
ENCODING 152
SWIDTH 500 0
DWIDTH 24 0
BBX 18 8 3 26
BITMAP
3E0380
7F87C0
7FE7C0
FFFFC0
FFFFC0
F9FFC0
F87F80
701F00
ENDCHAR
STARTCHAR C0153
ENCODING 153
SWIDTH 958 0
DWIDTH 46 0
BBX 45 20 0 13
BITMAP
3800C3F003F0
7FFFE7F807F8
7FFFE7FC0FF8
FFFFF3FC0FF0
FFFFF1FE1FE0
F9F9F1FE1FE0
F1F8F1FF3FE0
61F8E1FF3FE0
01F801FFFFE0
01F801FFFFE0
01F801FFFFE0
01F801DFF7E0
01F801CFE7E0
01F801CFE7E0
01F801C7C7E0
01F801C7C7E0
03FC03C387E0
0FFF03E38FF8
0FFF07F11FF8
03FE03E00FF0
ENDCHAR
STARTCHAR C0154
ENCODING 154
SWIDTH 479 0
DWIDTH 23 0
BBX 20 36 1 -1
BITMAP
1C0060
3E01F0
3F87F0
1FFFE0
0FFFC0
07FF80
03FF00
00FC00
007800
000000
000000
03FB80
0FFFC0
1FFFE0
3FFFE0
3FFFF0
7FE3F0
7FE1F0
7FE0E0
7FF000
7FFC00
3FFF00
3FFF80
1FFFC0
0FFFE0
03FFE0
00FFF0
E07FF0
F83FF0
FC3FF0
FFFFF0
7FFFE0
7FFFE0
3FFFC0
3FFF80
00FE00
ENDCHAR
STARTCHAR C0155
ENCODING 155
SWIDTH 270 0
DWIDTH 13 0
BBX 12 21 1 2
BITMAP
7000
F800
FC00
FE00
7F00
3F80
3FC0
1FE0
1FE0
0FF0
0FF0
0FF0
1FE0
1FE0
3FC0
3F80
7F00
FE00
FC00
F800
6000
ENDCHAR
STARTCHAR C0156
ENCODING 156
SWIDTH 875 0
DWIDTH 42 0
BBX 39 25 1 -1
BITMAP
003FC07F00
01FFF3FFC0
07FFFFFFE0
0FFFFFFFF8
1FFFFFE7F8
3FFFFFC3FC
3FE7FFC3FC
7FC3FFC3FE
7FC1FFC3FE
FFC1FFFFFE
FFC1FFFFFE
FFC1FFFFFE
FFC0FFFFFC
FFE0FFC000
FFE0FFC000
FFE0FFC000
FFE0FFE000
7FF0FFF018
7FF9FFF87C
3FFFFFFFFC
3FFFFFFFFC
1FFFFFFFF8
0FFFFFFFF0
03FFE3FFC0
00FF00FF00
ENDCHAR
STARTCHAR C0157
ENCODING 157
SWIDTH 250 0
DWIDTH 12 0
BBX 9 32 1 0
BITMAP
FF80
8080
8080
8080
8080
8080
8080
8080
8080
8080
8080
8080
8080
8080
8080
8080
8080
8080
8080
8080
8080
8080
8080
8080
8080
8080
8080
8080
8080
8080
8080
FF80
ENDCHAR
STARTCHAR C0158
ENCODING 158
SWIDTH 250 0
DWIDTH 12 0
BBX 9 32 1 0
BITMAP
FF80
8080
8080
8080
8080
8080
8080
8080
8080
8080
8080
8080
8080
8080
8080
8080
8080
8080
8080
8080
8080
8080
8080
8080
8080
8080
8080
8080
8080
8080
8080
FF80
ENDCHAR
STARTCHAR C0159
ENCODING 159
SWIDTH 770 0
DWIDTH 37 0
BBX 36 44 0 -1
BITMAP
001F007C00
007FC1FF00
00FFC3FF00
01FFC7FF00
01FFC7FF00
01FF87FE00
01FF07FC00
007C01F000
0000000000
0000000000
1FFF80FFE0
7FFFE3FFF0
FFFFE3FFF0
FFFFE3FFF0
7FFFC1FFE0
1FFFC1FF00
0FFFC1FE00
07FFE3FC00
03FFF7F800
01FFFFF000
00FFFFE000
007FFFC000
007FFF8000
003FFF8000
001FFF0000
001FFF0000
000FFE0000
000FFE0000
000FFE0000
000FFE0000
000FFE0000
000FFE0000
000FFE0000
000FFE0000
000FFE0000
000FFE0000
000FFE0000
001FFF0000
003FFF8000
007FFFC000
007FFFC000
007FFFC000
003FFF8000
000FFE0000
ENDCHAR
STARTCHAR C0160
ENCODING 160
SWIDTH 250 0
DWIDTH 12 0
BBX 1 1 0 -1
BITMAP
00
ENDCHAR
STARTCHAR C0161
ENCODING 161
SWIDTH 312 0
DWIDTH 15 0
BBX 11 33 2 -9
BITMAP
0F00
3FC0
3FC0
7FE0
7FE0
7FE0
7FE0
3FC0
3FC0
0F00
0000
0000
0000
0400
0E00
1F00
3F00
3F80
3F80
7FC0
7FC0
7FC0
FFE0
FFE0
FFE0
FFE0
FFE0
FFE0
FFE0
7FC0
7FC0
3F80
1F00
ENDCHAR
STARTCHAR C0162
ENCODING 162
SWIDTH 604 0
DWIDTH 29 0
BBX 21 28 4 -1
BITMAP
00F800
00F800
00FF00
03FFC0
0FFFE0
1FFFF0
3FFFF8
3FC7F8
7FC3F8
7F83F8
FF83F0
FF81E0
FF8000
FF8000
FFC000
FFC000
FFE000
7FF060
7FFFF0
3FFFF0
3FFFF0
1FFFE0
0FFFC0
07FF80
00FE00
00F800
00F800
00F800
ENDCHAR
STARTCHAR C0163
ENCODING 163
SWIDTH 604 0
DWIDTH 29 0
BBX 28 31 0 -1
BITMAP
000FF800
007FFE00
01FFFF80
03FFFFC0
07FFFFC0
07FF0FE0
0FFE0FE0
0FFE0FE0
0FFE0FE0
0FFE0FC0
0FFE0780
0FFE0000
07FF0000
7FFFF800
7FFFF800
7FFFF800
7FFFF800
03FF0000
01FE0000
01FE00E0
3FFC01F0
7FFC03F0
FFFF87F0
FFFFFFF0
FFFFFFE0
FFFFFFE0
FFFFFFE0
FFFFFFC0
7FCFFF80
7F83FF00
1E00FC00
ENDCHAR
STARTCHAR C0164
ENCODING 164
SWIDTH 604 0
DWIDTH 29 0
BBX 26 24 1 2
BITMAP
1C000E00
7E3F9F80
FFFFFFC0
7FFFFF80
3FFFFF00
1FFFFE00
1FC3FE00
3F81FF00
3F81FF00
7F80FF80
7F80FF80
7F80FF80
7FC07F80
7FC07F80
7FC07F80
7FE07F00
3FE07F00
3FF0FE00
1FFFFE00
3FFFFF00
7FFFFF80
FFFFFFC0
7EFF0F80
1C000E00
ENDCHAR
STARTCHAR C0165
ENCODING 165
SWIDTH 604 0
DWIDTH 29 0
BBX 30 31 0 -1
BITMAP
3FFC07F8
FFFF1FFC
FFFF1FFC
FFFF1FFC
3FFE0FF8
0FFE07C0
0FFE0F80
07FE0F00
03FF1F00
03FFFE00
01FFFC00
1FFFFFE0
1FFFFFE0
1FFFFFE0
007FF000
007FF000
007FF000
007FF000
1FFFFFE0
1FFFFFE0
1FFFFFE0
007FF000
007FF000
007FF000
00FFF800
01FFFC00
03FFFE00
03FFFE00
03FFFE00
01FFFC00
007FF000
ENDCHAR
STARTCHAR C0166
ENCODING 166
SWIDTH 500 0
DWIDTH 24 0
BBX 11 40 6 -8
BITMAP
FFE0
FFE0
FFE0
FFE0
FFE0
FFE0
FFE0
FFE0
FFE0
FFE0
FFE0
FFE0
FFE0
FFE0
FFE0
FFE0
FFE0
FFE0
0000
0000
0000
0000
0000
0000
0000
FFE0
FFE0
FFE0
FFE0
FFE0
FFE0
FFE0
FFE0
FFE0
FFE0
FFE0
FFE0
FFE0
FFE0
FFE0
ENDCHAR
STARTCHAR C0167
ENCODING 167
SWIDTH 729 0
DWIDTH 35 0
BBX 28 42 4 -9
BITMAP
00FFF000
07FFFE00
1FFFFF80
3FFFFFC0
7FFFFFE0
7FF83FE0
FFF01FC0
FFF00780
FFF80000
FFFF0000
FFFFE000
7FFFFC00
7FFFFF00
3FFFFF80
1FFFFFC0
0FFFFFE0
1FFFFFF0
3FFFFFF0
7FC7FFF0
7F807FF0
FF803FF0
FFC03FE0
FFE03FE0
FFFE7FC0
FFFFFF80
7FFFFF00
7FFFFF00
3FFFFFC0
1FFFFFE0
0FFFFFE0
01FFFFF0
003FFFF0
0003FFF0
3E00FFF0
FF007FF0
FF807FF0
FFE0FFE0
7FFFFFC0
3FFFFFC0
1FFFFF00
07FFFE00
007FF000
ENDCHAR
STARTCHAR C0168
ENCODING 168
SWIDTH 500 0
DWIDTH 24 0
BBX 23 7 1 26
BITMAP
1F00F8
7FC3FE
FFC7FE
FFC7FE
FFC7FE
FF87FC
3E01F0
ENDCHAR
STARTCHAR C0169
ENCODING 169
SWIDTH 770 0
DWIDTH 37 0
BBX 34 34 1 -1
BITMAP
0007F80000
003FFF0000
00FFFFC000
01F807E000
07E001F800
0F80007C00
0F00003C00
1E00001E00
3C03F00F00
380FFF8700
783FFF8780
707FFFC380
70FE1FC380
E0FC0FC1C0
E1FC07C1C0
E1FC0381C0
E1FC0001C0
E1FC0001C0
E1FE0001C0
E1FF00C1C0
E0FF83C1C0
70FFFFC380
707FFFC380
783FFF8780
380FFE0700
3C03F80F00
1E00001E00
0F00003C00
0F80007C00
07E001F800
01F807E000
00FFFFC000
003FFF0000
0007F80000
ENDCHAR
STARTCHAR C0170
ENCODING 170
SWIDTH 375 0
DWIDTH 18 0
BBX 16 14 1 13
BITMAP
07E0
1FF8
7FFC
7CFC
70FC
0FFC
3FFC
7FFC
FCFC
FCFC
FFFF
FFFF
7FFE
3E3C
ENDCHAR
STARTCHAR C0171
ENCODING 171
SWIDTH 541 0
DWIDTH 26 0
BBX 24 21 1 2
BITMAP
00E00E
01F01F
03F03F
07F07F
0FE0FE
1FC1FC
3FC3FC
7F87F8
7F87F8
FF0FF0
FF0FF0
FF0FF0
7F87F8
7F87F8
3FC3FC
1FC1FC
0FE0FE
07F07F
03F03F
01F01F
006006
ENDCHAR
STARTCHAR C0172
ENCODING 172
SWIDTH 500 0
DWIDTH 24 0
BBX 21 15 1 0
BITMAP
FFFFF8
FFFFF8
FFFFF8
FFFFF8
FFFFF8
FFFFF8
FFFFF8
FFFFF8
FFFFF8
001FF8
001FF8
001FF8
001FF8
001FF8
001FF8
ENDCHAR
STARTCHAR C0173
ENCODING 173
SWIDTH 291 0
DWIDTH 14 0
BBX 13 8 0 9
BITMAP
3FF8
3FF8
7FF8
7FF8
7FF0
FFF0
FFF0
FFE0
ENDCHAR
STARTCHAR C0174
ENCODING 174
SWIDTH 770 0
DWIDTH 37 0
BBX 34 34 1 -1
BITMAP
0007F80000
003FFF0000
00FFFFC000
01F807E000
07E001F800
0F80007C00
0F00003C00
1E00001E00
3CFFFC0F00
39FFFF0700
79FFFF0780
707E3F8380
707E3F8380
E07E3F81C0
E07E7F01C0
E07FFE01C0
E07FFE01C0
E07FFF01C0
E07E7F81C0
E07E3FC1C0
E07E3FC1C0
707E3FC380
70FE1FC380
79FF9FF780
39FF8FF700
3CFF07EF00
1E00001E00
0F00003C00
0F80007C00
07E001F800
01F807E000
00FFFFC000
003FFF0000
0007F80000
ENDCHAR
STARTCHAR C0175
ENCODING 175
SWIDTH 500 0
DWIDTH 24 0
BBX 24 6 0 35
BITMAP
FFFFFF
FFFFFF
FFFFFF
FFFFFF
FFFFFF
FFFFFF
ENDCHAR
STARTCHAR C0176
ENCODING 176
SWIDTH 416 0
DWIDTH 20 0
BBX 17 14 1 19
BITMAP
03F000
1FFC00
3FFE00
7C7F00
783F00
F81F80
F81F80
FC0F80
FC0F80
FE0F00
7F1F00
7FFE00
1FF800
0FE000
ENDCHAR
STARTCHAR C0177
ENCODING 177
SWIDTH 604 0
DWIDTH 29 0
BBX 23 27 3 1
BITMAP
001C00
007C00
007C00
007C00
007C00
007C00
007C00
007C00
3FFFFE
7FFFFE
7FFFFE
FFFFFC
FFFFFC
007C00
007C00
007C00
007C00
007C00
007C00
007800
006000
000000
3FFFFE
7FFFFE
7FFFFE
FFFFFC
FFFFFC
ENDCHAR
STARTCHAR C0178
ENCODING 178
SWIDTH 395 0
DWIDTH 19 0
BBX 18 17 0 12
BITMAP
03F800
1FFE00
3FFF00
7FFF80
FFFF80
F8FF80
70FF00
00FF00
01FE00
03FC00
07F0C0
0FF1C0
1FFFC0
7FFFC0
FFFF80
FFFF80
000700
ENDCHAR
STARTCHAR C0179
ENCODING 179
SWIDTH 395 0
DWIDTH 19 0
BBX 18 19 0 10
BITMAP
0FF000
7FFC00
FFFE00
FFFE00
C7FE00
03FC00
03F800
0FFC00
3FFF80
3FFF80
1FFFC0
00FFC0
007FC0
007FC0
00FF80
FFFF80
FFFF00
FFFC00
3FE000
ENDCHAR
STARTCHAR C0180
ENCODING 180
SWIDTH 500 0
DWIDTH 24 0
BBX 12 8 8 26
BITMAP
0FC0
1FF0
1FF0
1FF0
7FE0
FFC0
FF00
7C00
ENDCHAR
STARTCHAR C0181
ENCODING 181
SWIDTH 604 0
DWIDTH 29 0
BBX 27 29 0 -8
BITMAP
07F03F80
7FF3FF80
7FF3FF80
7FF3FF80
3FF1FF80
1FF0FF80
1FF0FF80
1FF0FF80
1FF0FF80
1FF0FF80
1FF0FF80
1FF0FF80
1FF0FF80
1FF0FF80
1FF0FF80
1FF0FF80
1FF9FF80
1FFFFFE0
1FFFFFE0
1FFFFFE0
1FFCFF80
1FF0FC00
1FE00000
1FE00000
1FE00000
FFC00000
FFC00000
FF800000
3E000000
ENDCHAR
STARTCHAR C0182
ENCODING 182
SWIDTH 604 0
DWIDTH 29 0
BBX 26 42 1 -9
BITMAP
07F00000
0FFFFF80
3FFFFFC0
3FFFFFC0
7FFFFF80
7FFFFE00
FFFC7C00
FFFC7C00
FFFC7C00
FFFC7C00
FFFC7C00
FFFC7C00
FFFC7C00
FFFC7C00
7FFC7C00
7FFC7C00
3FFC7C00
1FFC7C00
0FFC7C00
07FC7C00
007C7C00
007C7C00
007C7C00
007C7C00
007C7C00
007C7C00
007C7C00
007C7C00
007C7C00
007C7C00
007C7C00
007C7C00
007C7C00
007C7C00
007C7C00
007C7C00
007C7C00
007C7C00
007C7C00
007C7C00
00787800
00606000
ENDCHAR
STARTCHAR C0183
ENCODING 183
SWIDTH 291 0
DWIDTH 14 0
BBX 11 11 1 6
BITMAP
1F00
3F80
7FC0
FFE0
FFE0
FFE0
FFE0
FFE0
7FC0
3F80
1F00
ENDCHAR
STARTCHAR C0184
ENCODING 184
SWIDTH 500 0
DWIDTH 24 0
BBX 9 8 7 -8
BITMAP
7800
3C00
1E00
1F00
7F80
FF80
FF80
7E00
ENDCHAR
STARTCHAR C0185
ENCODING 185
SWIDTH 395 0
DWIDTH 19 0
BBX 15 16 2 13
BITMAP
03F8
1FF8
3FF0
7FE0
7FE0
0FE0
0FE0
0FE0
0FE0
0FE0
0FE0
0FE0
0FF0
FFFE
FFFE
3FF8
ENDCHAR
STARTCHAR C0186
ENCODING 186
SWIDTH 395 0
DWIDTH 19 0
BBX 18 14 0 13
BITMAP
03F800
0FFE00
3FFF00
7FFF80
7E3F80
FE3FC0
FE1FC0
FF1FC0
FF1FC0
FF9F80
7FFF80
3FFF00
1FFC00
07F000
ENDCHAR
STARTCHAR C0187
ENCODING 187
SWIDTH 541 0
DWIDTH 26 0
BBX 24 21 1 2
BITMAP
700700
F80F80
FC0FC0
FE0FE0
7F07F0
3F83F8
3FC3FC
1FE1FE
1FE1FE
0FF0FF
0FF0FF
0FF0FF
1FE1FE
1FE1FE
3FC3FC
3F83F8
7F07F0
FE0FE0
FC0FC0
F80F80
600600
ENDCHAR
STARTCHAR C0188
ENCODING 188
SWIDTH 937 0
DWIDTH 45 0
BBX 42 33 1 -3
BITMAP
0000001E0000
01F8003E0000
1FF8003C0000
3FF0007C0000
7FE000780000
7FE000F80000
0FE000F00000
0FE001E00000
0FE001E00000
0FE003C00000
0FE003C00000
0FE007800000
0FE00F000000
0FF00F000000
FFFE1E000F00
FFFE1E003F00
3FF83C007F00
00007800FF00
00007801FF00
0000F003FF00
0000F007FF00
0001E00E7F00
0003C01E7F00
0003C03C7F00
000780787F00
000780707F00
000F00FFFFC0
001F00FFFFC0
001E00FFFFC0
003E00FFFFC0
003C00007F00
007800007F00
007800007F00
ENDCHAR
STARTCHAR C0189
ENCODING 189
SWIDTH 937 0
DWIDTH 45 0
BBX 42 33 1 -3
BITMAP
0000001E0000
01F8003E0000
1FF8003C0000
3FF0007C0000
7FE000780000
7FE000F80000
0FE000F00000
0FE001E00000
0FE001E00000
0FE003C00000
0FE003C00000
0FE007800000
0FE00F000000
0FF00F000000
FFFE1E03F800
FFFE1E1FFE00
3FF83C3FFF00
0000787FFF80
000078FFFF80
0000F0F8FF80
0000F070FF00
0001E000FF00
0003C001FE00
0003C003FC00
00078007F0C0
0007800FF1C0
000F001FFFC0
001F007FFFC0
001E00FFFF80
003E00FFFF80
003C00000700
007800000000
007800000000
ENDCHAR
STARTCHAR C0190
ENCODING 190
SWIDTH 937 0
DWIDTH 45 0
BBX 42 33 1 -3
BITMAP
0000001E0000
0FF0001E0000
7FFC003E0000
FFFE003C0000
FFFE00780000
C7FE00780000
03FC00F00000
03F800F00000
0FFC01E00000
3FFF81E00000
3FFF83C00000
1FFFC3C00000
00FFC7800000
007FC7800000
007FCF000F00
00FF8E003F00
FFFF9E007F00
FFFF1C00FF00
FFFC3C01FF00
3FE07803FF00
00007807FF00
0000F00E7F00
0000F01E7F00
0001E03C7F00
0001E0787F00
0003C0707F00
0003C0FFFFC0
000780FFFFC0
000780FFFFC0
000F00FFFFC0
001F00007F00
001E00007F00
001E00007F00
ENDCHAR
STARTCHAR C0191
ENCODING 191
SWIDTH 479 0
DWIDTH 23 0
BBX 22 33 0 -9
BITMAP
003C00
00FF00
00FF00
01FF80
01FF80
01FF80
01FF80
00FF00
00FF00
003C00
000000
000000
003C00
007E00
007E00
00FE00
01FE00
07FE00
1FFC00
3FFC00
7FF8F0
FFF1F8
FFF3FC
FFE7FC
FFE7FC
FFE7FC
FFE7F8
7FE7F8
3FFFF0
3FFFF0
0FFFE0
07FF80
00FE00
ENDCHAR
STARTCHAR C0192
ENCODING 192
SWIDTH 833 0
DWIDTH 40 0
BBX 39 44 0 -1
BITMAP
0007E00000
001FF00000
001FF00000
001FF00000
000FFC0000
0007FE0000
0001FE0000
00007C0000
0000000000
0000000000
0001F00000
0003FC0000
0007FE0000
0007FF0000
000FFF0000
000FFF8000
000FFF8000
000FFFC000
000FFFE000
000FFFE000
000FFFF000
001FFFF000
001FFFF800
001F7FF800
003E3FFC00
003E3FFC00
007E1FFC00
007C1FFE00
00FC1FFE00
00FC0FFF00
00FFFFFF00
01FFFFFF80
01FFFFFF80
03FFFFFFC0
03FFFFFFC0
07FFFFFFC0
07E003FFE0
0FE001FFE0
1FE001FFF0
3FF007FFFC
FFF80FFFFE
FFF80FFFFE
FFF80FFFFC
3FE003FFF0
ENDCHAR
STARTCHAR C0193
ENCODING 193
SWIDTH 833 0
DWIDTH 40 0
BBX 39 44 0 -1
BITMAP
00003F0000
00007FC000
00007FC000
00007FC000
0001FF8000
0003FF0000
0003FC0000
0001F00000
0000000000
0000000000
0001F00000
0003FC0000
0007FE0000
0007FF0000
000FFF0000
000FFF8000
000FFF8000
000FFFC000
000FFFE000
000FFFE000
000FFFF000
001FFFF000
001FFFF800
001F7FF800
003E3FFC00
003E3FFC00
007E1FFC00
007C1FFE00
00FC1FFE00
00FC0FFF00
00FFFFFF00
01FFFFFF80
01FFFFFF80
03FFFFFFC0
03FFFFFFC0
07FFFFFFC0
07E003FFE0
0FE001FFE0
1FE001FFF0
3FF007FFFC
FFF80FFFFE
FFF80FFFFE
FFF80FFFFC
3FE003FFF0
ENDCHAR
STARTCHAR C0194
ENCODING 194
SWIDTH 833 0
DWIDTH 40 0
BBX 39 45 0 -1
BITMAP
0000380000
0000FE0000
0001FF8000
0003FFC000
000FFFE000
000FFFF000
001FC3F800
001F00F800
000C003000
0000000000
0000000000
0001F00000
0003FC0000
0007FE0000
0007FF0000
000FFF0000
000FFF8000
000FFF8000
000FFFC000
000FFFE000
000FFFE000
000FFFF000
001FFFF000
001FFFF800
001F7FF800
003E3FFC00
003E3FFC00
007E1FFC00
007C1FFE00
00FC1FFE00
00FC0FFF00
00FFFFFF00
01FFFFFF80
01FFFFFF80
03FFFFFFC0
03FFFFFFC0
07FFFFFFC0
07E003FFE0
0FE001FFE0
1FE001FFF0
3FF007FFFC
FFF80FFFFE
FFF80FFFFE
FFF80FFFFC
3FE003FFF0
ENDCHAR
STARTCHAR C0195
ENCODING 195
SWIDTH 833 0
DWIDTH 40 0
BBX 39 44 0 -1
BITMAP
0007807000
000FF0F800
001FFCF800
001FFFF800
001FFFF800
001F3FF000
001F0FF000
000F01E000
0000000000
0000000000
0001F00000
0003FC0000
0007FE0000
0007FF0000
000FFF0000
000FFF8000
000FFF8000
000FFFC000
000FFFE000
000FFFE000
000FFFF000
001FFFF000
001FFFF800
001F7FF800
003E3FFC00
003E3FFC00
007E1FFC00
007C1FFE00
00FC1FFE00
00FC0FFF00
00FFFFFF00
01FFFFFF80
01FFFFFF80
03FFFFFFC0
03FFFFFFC0
07FFFFFFC0
07E003FFE0
0FE001FFE0
1FE001FFF0
3FF007FFFC
FFF80FFFFE
FFF80FFFFE
FFF80FFFFC
3FE003FFF0
ENDCHAR
STARTCHAR C0196
ENCODING 196
SWIDTH 833 0
DWIDTH 40 0
BBX 39 44 0 -1
BITMAP
001F007C00
007FC1FF00
00FFC3FF00
01FFC7FF00
01FFC7FF00
01FF87FE00
01FF07FC00
007C01F000
0000000000
0000000000
0001F00000
0003FC0000
0007FE0000
0007FF0000
000FFF0000
000FFF8000
000FFF8000
000FFFC000
000FFFE000
000FFFE000
000FFFF000
001FFFF000
001FFFF800
001F7FF800
003E3FFC00
003E3FFC00
007E1FFC00
007C1FFE00
00FC1FFE00
00FC0FFF00
00FFFFFF00
01FFFFFF80
01FFFFFF80
03FFFFFFC0
03FFFFFFC0
07FFFFFFC0
07E003FFE0
0FE001FFE0
1FE001FFF0
3FF007FFFC
FFF80FFFFE
FFF80FFFFE
FFF80FFFFC
3FE003FFF0
ENDCHAR
STARTCHAR C0197
ENCODING 197
SWIDTH 833 0
DWIDTH 40 0
BBX 39 45 0 -1
BITMAP
0001FE0000
0007FF8000
0007CF8000
000F87C000
000F87C000
000F87C000
000FCF8000
0007FF8000
0001FE0000
0000000000
0000000000
0001F00000
0003FC0000
0007FE0000
0007FF0000
000FFF0000
000FFF8000
000FFF8000
000FFFC000
000FFFE000
000FFFE000
000FFFF000
001FFFF000
001FFFF800
001F7FF800
003E3FFC00
003E3FFC00
007E1FFC00
007C1FFE00
00FC1FFE00
00FC0FFF00
00FFFFFF00
01FFFFFF80
01FFFFFF80
03FFFFFFC0
03FFFFFFC0
07FFFFFFC0
07E003FFE0
0FE001FFE0
1FE001FFF0
3FF007FFFC
FFF80FFFFE
FFF80FFFFE
FFF80FFFFC
3FE003FFF0
ENDCHAR
STARTCHAR C0198
ENCODING 198
SWIDTH 1041 0
DWIDTH 50 0
BBX 49 34 0 -1
BITMAP
00000000003800
00003FFFFFFC00
00007FFFFFFC00
0000FFFFFFFC00
0000FFFFFFFE00
0000FFFFFFFE00
0000FFFF80FE00
0001FFFF003E00
0001FFFF001E00
0003FFFF070C00
0003FFFF0F0000
0007FFFF0F0000
0007E7FF0F8000
000FE7FF0F8000
000FC7FFFF8000
001FC7FFFF8000
001F87FFFF8000
003F07FFFF8000
007F07FFFF8000
007F07FF1F8000
00FF0FFF0F8000
00FFFFFF0F0000
01FFFFFF0F0700
03FFFFFF060780
03FFFFFF000F80
07FFFFFF000F80
07FFFFFF001F80
0FE00FFF807F80
1FE01FFFFFFF00
7FF03FFFFFFF00
FFF83FFFFFFF00
FFFC3FFFFFFE00
7FFC1FFFFFFE00
3FF00000001C00
ENDCHAR
STARTCHAR C0199
ENCODING 199
SWIDTH 729 0
DWIDTH 35 0
BBX 33 44 1 -11
BITMAP
0007F80000
003FFF0000
00FFFFFC00
01FFFFFE00
03FFFFFF00
07FFFFFF00
0FFFFFFF80
1FFE0FFF80
3FFC03FF80
3FF801FF80
7FF000FF80
7FF0007F80
7FF0007F80
FFF0003F00
FFF0001E00
FFF0000000
FFF0000000
FFF0000000
FFF8000000
FFF8000000
FFFC000000
7FFC000000
7FFE000000
3FFF000600
3FFF800F00
1FFFE07F00
1FFFFFFF00
0FFFFFFF00
07FFFFFE00
03FFFFFC00
01FFFFF800
007FFFC000
000FFF0000
0001F00000
0001E00000
0001F00000
0000F00000
0000F80000
0000F80000
000FFC0000
001FFC0000
001FFC0000
001FF80000
0007F00000
ENDCHAR
STARTCHAR C0200
ENCODING 200
SWIDTH 687 0
DWIDTH 33 0
BBX 31 44 1 -1
BITMAP
003F0000
00FF8000
00FF8000
00FF8000
007FE000
003FF000
000FF000
0003E000
00000000
00000000
000000E0
7FFFFFF0
FFFFFFF0
FFFFFFF8
FFFFFFF8
7FFFFFF8
3FFE03F8
1FFC00F8
1FFC0078
1FFC1870
1FFC3C00
1FFC3C00
1FFC3E00
1FFC3E00
1FFFFE00
1FFFFE00
1FFFFE00
1FFFFE00
1FFFFE00
1FFC7E00
1FFC3E00
1FFC3C00
1FFC3C1C
1FFC181E
1FFC003E
1FFC003E
3FFC007E
3FFE01FE
7FFFFFFC
FFFFFFFC
FFFFFFFC
FFFFFFF8
7FFFFFF8
00000070
ENDCHAR
STARTCHAR C0201
ENCODING 201
SWIDTH 687 0
DWIDTH 33 0
BBX 31 44 1 -1
BITMAP
0007E000
000FF800
000FF800
000FF800
003FF000
007FE000
007F8000
003E0000
00000000
00000000
000000E0
7FFFFFF0
FFFFFFF0
FFFFFFF8
FFFFFFF8
7FFFFFF8
3FFE03F8
1FFC00F8
1FFC0078
1FFC1870
1FFC3C00
1FFC3C00
1FFC3E00
1FFC3E00
1FFFFE00
1FFFFE00
1FFFFE00
1FFFFE00
1FFFFE00
1FFC7E00
1FFC3E00
1FFC3C00
1FFC3C1C
1FFC181E
1FFC003E
1FFC003E
3FFC007E
3FFE01FE
7FFFFFFC
FFFFFFFC
FFFFFFFC
FFFFFFF8
7FFFFFF8
00000070
ENDCHAR
STARTCHAR C0202
ENCODING 202
SWIDTH 687 0
DWIDTH 33 0
BBX 31 45 1 -1
BITMAP
00070000
001FC000
003FF000
007FF800
01FFFC00
01FFFE00
03F87F00
03E01F00
01800600
00000000
00000000
000000E0
7FFFFFF0
FFFFFFF0
FFFFFFF8
FFFFFFF8
7FFFFFF8
3FFE03F8
1FFC00F8
1FFC0078
1FFC1870
1FFC3C00
1FFC3C00
1FFC3E00
1FFC3E00
1FFFFE00
1FFFFE00
1FFFFE00
1FFFFE00
1FFFFE00
1FFC7E00
1FFC3E00
1FFC3C00
1FFC3C1C
1FFC181E
1FFC003E
1FFC003E
3FFC007E
3FFE01FE
7FFFFFFC
FFFFFFFC
FFFFFFFC
FFFFFFF8
7FFFFFF8
00000070
ENDCHAR
STARTCHAR C0203
ENCODING 203
SWIDTH 687 0
DWIDTH 33 0
BBX 31 44 1 -1
BITMAP
01F007C0
07FC1FF0
0FFC3FF0
1FFC7FF0
1FFC7FF0
1FF87FE0
1FF07FC0
07C01F00
00000000
00000000
000000E0
7FFFFFF0
FFFFFFF0
FFFFFFF8
FFFFFFF8
7FFFFFF8
3FFE03F8
1FFC00F8
1FFC0078
1FFC1870
1FFC3C00
1FFC3C00
1FFC3E00
1FFC3E00
1FFFFE00
1FFFFE00
1FFFFE00
1FFFFE00
1FFFFE00
1FFC7E00
1FFC3E00
1FFC3C00
1FFC3C1C
1FFC181E
1FFC003E
1FFC003E
3FFC007E
3FFE01FE
7FFFFFFC
FFFFFFFC
FFFFFFFC
FFFFFFF8
7FFFFFF8
00000070
ENDCHAR
STARTCHAR C0204
ENCODING 204
SWIDTH 416 0
DWIDTH 20 0
BBX 17 44 1 -1
BITMAP
0FC000
3FE000
3FE000
3FE000
1FF800
0FFC00
03FC00
00F800
000000
000000
0FFC00
7FFF00
FFFF80
FFFF80
FFFF80
7FFF00
3FFE00
1FFC00
1FFC00
1FFC00
1FFC00
1FFC00
1FFC00
1FFC00
1FFC00
1FFC00
1FFC00
1FFC00
1FFC00
1FFC00
1FFC00
1FFC00
1FFC00
1FFC00
1FFC00
1FFC00
1FFC00
3FFE00
7FFF00
FFFF80
FFFF80
FFFF80
7FFF00
1FFC00
ENDCHAR
STARTCHAR C0205
ENCODING 205
SWIDTH 416 0
DWIDTH 20 0
BBX 17 44 1 -1
BITMAP
00FC00
01FF00
01FF00
01FF00
07FE00
0FFC00
0FF000
07C000
000000
000000
0FFC00
7FFF00
FFFF80
FFFF80
FFFF80
7FFF00
3FFE00
1FFC00
1FFC00
1FFC00
1FFC00
1FFC00
1FFC00
1FFC00
1FFC00
1FFC00
1FFC00
1FFC00
1FFC00
1FFC00
1FFC00
1FFC00
1FFC00
1FFC00
1FFC00
1FFC00
1FFC00
3FFE00
7FFF00
FFFF80
FFFF80
FFFF80
7FFF00
1FFC00
ENDCHAR
STARTCHAR C0206
ENCODING 206
SWIDTH 416 0
DWIDTH 20 0
BBX 18 45 1 -1
BITMAP
01C000
07F000
0FFC00
1FFE00
7FFF00
7FFF80
FE1FC0
F807C0
600180
000000
000000
0FFC00
7FFF00
FFFF80
FFFF80
FFFF80
7FFF00
3FFE00
1FFC00
1FFC00
1FFC00
1FFC00
1FFC00
1FFC00
1FFC00
1FFC00
1FFC00
1FFC00
1FFC00
1FFC00
1FFC00
1FFC00
1FFC00
1FFC00
1FFC00
1FFC00
1FFC00
1FFC00
3FFE00
7FFF00
FFFF80
FFFF80
FFFF80
7FFF00
1FFC00
ENDCHAR
STARTCHAR C0207
ENCODING 207
SWIDTH 416 0
DWIDTH 20 0
BBX 24 44 -2 -1
BITMAP
0F807C
3FE1FF
7FE3FF
FFE7FF
FFE7FF
FFC7FE
FF87FC
3E01F0
000000
000000
01FF80
0FFFE0
1FFFF0
1FFFF0
1FFFF0
0FFFE0
07FFC0
03FF80
03FF80
03FF80
03FF80
03FF80
03FF80
03FF80
03FF80
03FF80
03FF80
03FF80
03FF80
03FF80
03FF80
03FF80
03FF80
03FF80
03FF80
03FF80
03FF80
07FFC0
0FFFE0
1FFFF0
1FFFF0
1FFFF0
0FFFE0
03FF80
ENDCHAR
STARTCHAR C0208
ENCODING 208
SWIDTH 812 0
DWIDTH 39 0
BBX 36 33 1 0
BITMAP
7FFFFF0000
FFFFFFF000
FFFFFFF800
FFFFFFFE00
FFFFFFFF00
7FFC1FFF80
3FFC07FF80
1FFC03FFC0
1FFC03FFC0
1FFC01FFE0
1FFC01FFE0
1FFC01FFE0
1FFC00FFF0
1FFC00FFF0
FFFFF0FFF0
FFFFF0FFF0
FFFFF0FFF0
FFFFF0FFF0
1FFC00FFF0
1FFC00FFF0
1FFC00FFF0
1FFC00FFE0
1FFC01FFE0
1FFC01FFE0
1FFC01FFC0
1FFC03FFC0
1FFC07FF80
3FFE0FFF00
7FFFFFFF00
FFFFFFFC00
FFFFFFF800
FFFFFFE000
7FFFFF0000
ENDCHAR
STARTCHAR C0209
ENCODING 209
SWIDTH 833 0
DWIDTH 40 0
BBX 37 44 1 -1
BITMAP
000F00E000
001FE1F000
003FF9F000
003FFFF000
003FFFF000
003E7FE000
003E1FE000
001E03C000
0000000000
0000000000
3FC0003FE0
7FF000FFF8
FFF800FFF8
FFFC00FFF8
FFFE00FFF8
7FFF007FF0
3FFF803FE0
3FFFC01FE0
1FFFE01FC0
1FFFF01FC0
1FFFF81FC0
1FFFFE1FC0
1FFFFF1FC0
1FFFFFBFC0
1FFFFFFFC0
1FFFFFFFC0
1FFFFFFFC0
1FFFFFFFC0
1FE7FFFFC0
1FC3FFFFC0
1FC1FFFFC0
1FC0FFFFC0
1FC07FFFC0
1FC03FFFC0
1FC00FFFC0
1FC007FFC0
3FC003FFC0
3FE001FFC0
7FF000FFC0
FFF8007FC0
FFF8003FC0
FFF8001FC0
7FF0000F80
3FE0000380
ENDCHAR
STARTCHAR C0210
ENCODING 210
SWIDTH 770 0
DWIDTH 37 0
BBX 34 44 1 -1
BITMAP
000FC00000
003FE00000
003FE00000
003FE00000
001FF80000
000FFC0000
0003FC0000
0000F80000
0000000000
0000000000
0007F80000
003FFF0000
00FFFFC000
03FFFFE000
07FFFFF800
0FFFFFF800
1FFFFFFC00
1FFC7FFE00
3FF83FFF00
3FF01FFF00
7FF01FFF80
7FF00FFF80
7FF00FFF80
FFF007FFC0
FFF007FFC0
FFF007FFC0
FFF807FFC0
FFF803FFC0
FFF803FFC0
FFF803FFC0
FFFC03FFC0
7FFC03FFC0
7FFC03FF80
7FFE03FF80
3FFE03FF00
3FFF07FF00
1FFF8FFE00
1FFFFFFE00
0FFFFFFC00
07FFFFF800
03FFFFE000
00FFFFC000
003FFF0000
0007F80000
ENDCHAR
STARTCHAR C0211
ENCODING 211
SWIDTH 770 0
DWIDTH 37 0
BBX 34 44 1 -1
BITMAP
0000FC0000
0001FF0000
0001FF0000
0001FF0000
0007FE0000
000FFC0000
000FF00000
0007C00000
0000000000
0000000000
0007F80000
003FFF0000
00FFFFC000
03FFFFE000
07FFFFF800
0FFFFFF800
1FFFFFFC00
1FFC7FFE00
3FF83FFF00
3FF01FFF00
7FF01FFF80
7FF00FFF80
7FF00FFF80
FFF007FFC0
FFF007FFC0
FFF007FFC0
FFF807FFC0
FFF803FFC0
FFF803FFC0
FFF803FFC0
FFFC03FFC0
7FFC03FFC0
7FFC03FF80
7FFE03FF80
3FFE03FF00
3FFF07FF00
1FFF8FFE00
1FFFFFFE00
0FFFFFFC00
07FFFFF800
03FFFFE000
00FFFFC000
003FFF0000
0007F80000
ENDCHAR
STARTCHAR C0212
ENCODING 212
SWIDTH 770 0
DWIDTH 37 0
BBX 34 45 1 -1
BITMAP
0001C00000
0007F00000
000FFC0000
001FFE0000
007FFF0000
007FFF8000
00FE1FC000
00F807C000
0060018000
0000000000
0000000000
0007F80000
003FFF0000
00FFFFC000
03FFFFE000
07FFFFF800
0FFFFFF800
1FFFFFFC00
1FFC7FFE00
3FF83FFF00
3FF01FFF00
7FF01FFF80
7FF00FFF80
7FF00FFF80
FFF007FFC0
FFF007FFC0
FFF007FFC0
FFF807FFC0
FFF803FFC0
FFF803FFC0
FFF803FFC0
FFFC03FFC0
7FFC03FFC0
7FFC03FF80
7FFE03FF80
3FFE03FF00
3FFF07FF00
1FFF8FFE00
1FFFFFFE00
0FFFFFFC00
07FFFFF800
03FFFFE000
00FFFFC000
003FFF0000
0007F80000
ENDCHAR
STARTCHAR C0213
ENCODING 213
SWIDTH 770 0
DWIDTH 37 0
BBX 34 44 1 -1
BITMAP
003C038000
007F87C000
00FFE7C000
00FFFFC000
00FFFFC000
00F9FF8000
00F87F8000
00780F0000
0000000000
0000000000
0007F80000
003FFF0000
00FFFFC000
03FFFFE000
07FFFFF800
0FFFFFF800
1FFFFFFC00
1FFC7FFE00
3FF83FFF00
3FF01FFF00
7FF01FFF80
7FF00FFF80
7FF00FFF80
FFF007FFC0
FFF007FFC0
FFF007FFC0
FFF807FFC0
FFF803FFC0
FFF803FFC0
FFF803FFC0
FFFC03FFC0
7FFC03FFC0
7FFC03FF80
7FFE03FF80
3FFE03FF00
3FFF07FF00
1FFF8FFE00
1FFFFFFE00
0FFFFFFC00
07FFFFF800
03FFFFE000
00FFFFC000
003FFF0000
0007F80000
ENDCHAR
STARTCHAR C0214
ENCODING 214
SWIDTH 770 0
DWIDTH 37 0
BBX 34 44 1 -1
BITMAP
007C01F000
01FF07FC00
03FF0FFC00
07FF1FFC00
07FF1FFC00
07FE1FF800
07FC1FF000
01F007C000
0000000000
0000000000
0007F80000
003FFF0000
00FFFFC000
03FFFFE000
07FFFFF800
0FFFFFF800
1FFFFFFC00
1FFC7FFE00
3FF83FFF00
3FF01FFF00
7FF01FFF80
7FF00FFF80
7FF00FFF80
FFF007FFC0
FFF007FFC0
FFF007FFC0
FFF807FFC0
FFF803FFC0
FFF803FFC0
FFF803FFC0
FFFC03FFC0
7FFC03FFC0
7FFC03FF80
7FFE03FF80
3FFE03FF00
3FFF07FF00
1FFF8FFE00
1FFFFFFE00
0FFFFFFC00
07FFFFF800
03FFFFE000
00FFFFC000
003FFF0000
0007F80000
ENDCHAR
STARTCHAR C0215
ENCODING 215
SWIDTH 604 0
DWIDTH 29 0
BBX 19 19 5 5
BITMAP
300180
7803C0
FC03E0
FC07E0
7E0FC0
3F1F00
0FFE00
07FC00
03F800
03F800
03F800
07FC00
0FFE00
3F1F00
7E0FC0
FC07E0
F807E0
7803C0
300180
ENDCHAR
STARTCHAR C0216
ENCODING 216
SWIDTH 770 0
DWIDTH 37 0
BBX 34 34 1 -1
BITMAP
0007FC0000
003FFF8180
00FFFFE3C0
03FFFFF780
07FFFFFE00
0FFFFFFC00
1FFFFFFE00
1FFC7FFE00
3FF83FFF00
3FF01FFF00
7FF00FFF80
7FF00FFF80
7FF00FFF80
FFF01FFFC0
FFF03FFFC0
FFF067FFC0
FFF0C7FFC0
FFFB87FFC0
FFFF03FFC0
FFFE03FFC0
FFFC03FFC0
7FF803FF80
7FFC03FF80
7FFC03FF80
3FFE03FF00
3FFE07FF00
1FFF8FFE00
1FFFFFFC00
3FFFFFF800
77FFFFF000
E1FFFFE000
40FFFFC000
003FFF0000
0007F80000
ENDCHAR
STARTCHAR C0217
ENCODING 217
SWIDTH 812 0
DWIDTH 39 0
BBX 36 44 1 -1
BITMAP
0003F00000
000FF80000
000FF80000
000FF80000
0007FE0000
0003FF0000
0000FF0000
00003E0000
0000000000
0000000000
1FFC007FC0
7FFF01FFF0
FFFF81FFF0
FFFF81FFF0
FFFF81FFF0
7FFF00FFE0
3FFE007FC0
1FFC003F80
1FFC003F80
1FFC003F80
1FFC003F80
1FFC003F80
1FFC003F80
1FFC003F80
1FFC003F80
1FFC003F80
1FFC003F80
1FFC003F80
1FFC003F80
1FFC003F80
1FFC003F80
1FFC003F80
1FFC003F80
1FFE003F80
1FFE007F80
1FFF00FF00
0FFFC1FF00
0FFFFFFF00
07FFFFFE00
03FFFFFC00
01FFFFF800
00FFFFF000
003FFFC000
0007FE0000
ENDCHAR
STARTCHAR C0218
ENCODING 218
SWIDTH 812 0
DWIDTH 39 0
BBX 36 44 1 -1
BITMAP
00003F0000
00007FC000
00007FC000
00007FC000
0001FF8000
0003FF0000
0003FC0000
0001F00000
0000000000
0000000000
1FFC007FC0
7FFF01FFF0
FFFF81FFF0
FFFF81FFF0
FFFF81FFF0
7FFF00FFE0
3FFE007FC0
1FFC003F80
1FFC003F80
1FFC003F80
1FFC003F80
1FFC003F80
1FFC003F80
1FFC003F80
1FFC003F80
1FFC003F80
1FFC003F80
1FFC003F80
1FFC003F80
1FFC003F80
1FFC003F80
1FFC003F80
1FFC003F80
1FFE003F80
1FFE007F80
1FFF00FF00
0FFFC1FF00
0FFFFFFF00
07FFFFFE00
03FFFFFC00
01FFFFF800
00FFFFF000
003FFFC000
0007FE0000
ENDCHAR
STARTCHAR C0219
ENCODING 219
SWIDTH 812 0
DWIDTH 39 0
BBX 36 45 1 -1
BITMAP
0000700000
0001FC0000
0003FF0000
0007FF8000
001FFFC000
001FFFE000
003F87F000
003E01F000
0018006000
0000000000
0000000000
1FFC007FC0
7FFF01FFF0
FFFF81FFF0
FFFF81FFF0
FFFF81FFF0
7FFF00FFE0
3FFE007FC0
1FFC003F80
1FFC003F80
1FFC003F80
1FFC003F80
1FFC003F80
1FFC003F80
1FFC003F80
1FFC003F80
1FFC003F80
1FFC003F80
1FFC003F80
1FFC003F80
1FFC003F80
1FFC003F80
1FFC003F80
1FFC003F80
1FFE003F80
1FFE007F80
1FFF00FF00
0FFFC1FF00
0FFFFFFF00
07FFFFFE00
03FFFFFC00
01FFFFF800
00FFFFF000
003FFFC000
0007FE0000
ENDCHAR
STARTCHAR C0220
ENCODING 220
SWIDTH 812 0
DWIDTH 39 0
BBX 36 44 1 -1
BITMAP
001F007C00
007FC1FF00
00FFC3FF00
01FFC7FF00
01FFC7FF00
01FF87FE00
01FF07FC00
007C01F000
0000000000
0000000000
1FFC007FC0
7FFF01FFF0
FFFF81FFF0
FFFF81FFF0
FFFF81FFF0
7FFF00FFE0
3FFE007FC0
1FFC003F80
1FFC003F80
1FFC003F80
1FFC003F80
1FFC003F80
1FFC003F80
1FFC003F80
1FFC003F80
1FFC003F80
1FFC003F80
1FFC003F80
1FFC003F80
1FFC003F80
1FFC003F80
1FFC003F80
1FFC003F80
1FFE003F80
1FFE007F80
1FFF00FF00
0FFFC1FF00
0FFFFFFF00
07FFFFFE00
03FFFFFC00
01FFFFF800
00FFFFF000
003FFFC000
0007FE0000
ENDCHAR
STARTCHAR C0221
ENCODING 221
SWIDTH 770 0
DWIDTH 37 0
BBX 36 44 0 -1
BITMAP
00003F0000
00007FC000
00007FC000
00007FC000
0001FF8000
0003FF0000
0003FC0000
0001F00000
0000000000
0000000000
1FFF80FFE0
7FFFE3FFF0
FFFFE3FFF0
FFFFE3FFF0
7FFFC1FFE0
1FFFC1FF00
0FFFC1FE00
07FFE3FC00
03FFF7F800
01FFFFF000
00FFFFE000
007FFFC000
007FFF8000
003FFF8000
001FFF0000
001FFF0000
000FFE0000
000FFE0000
000FFE0000
000FFE0000
000FFE0000
000FFE0000
000FFE0000
000FFE0000
000FFE0000
000FFE0000
000FFE0000
001FFF0000
003FFF8000
007FFFC000
007FFFC000
007FFFC000
003FFF8000
000FFE0000
ENDCHAR
STARTCHAR C0222
ENCODING 222
SWIDTH 687 0
DWIDTH 33 0
BBX 30 33 1 -1
BITMAP
7FFC0000
FFFC0000
FFFC0000
FFFC0000
7FFC0000
3FFDFC00
1FFFFF80
1FFFFFE0
1FFFFFF0
1FFFFFF0
1FFC7FF8
1FFC3FF8
1FFC1FFC
1FFC1FFC
1FFC1FFC
1FFC1FFC
1FFC1FFC
1FFC1FFC
1FFC3FF8
1FFC7FF8
1FFFFFF0
1FFFFFE0
1FFFFFC0
1FFFFF80
1FFFFC00
1FFC0000
3FFE0000
7FFF0000
FFFF8000
FFFF8000
FFFF8000
7FFF0000
1FFC0000
ENDCHAR
STARTCHAR C0223
ENCODING 223
SWIDTH 645 0
DWIDTH 31 0
BBX 28 33 1 -1
BITMAP
001FE000
007FF800
01FFFC00
03FFFC00
07FFFE00
0FFC7E00
0FF87E00
1FF87E00
1FF8FC00
3FF1FC00
3FF1FC00
3FF3FC00
3FF3FE00
3FF3FE00
3FF3FF00
3FF3FF00
3FF1FF80
3FF1FFC0
3FF1FFC0
3FF0FFE0
3FF0FFE0
3FF07FE0
3FF07FF0
3FF03FF0
3FF03FF0
3FF03FF0
7FF83FF0
7FF87FF0
FFFCFFF0
FFFCFFE0
FFFC7FE0
7FF87F80
3FE01F00
ENDCHAR
STARTCHAR C0224
ENCODING 224
SWIDTH 562 0
DWIDTH 27 0
BBX 25 35 1 -1
BITMAP
01F80000
07FC0000
07FC0000
07FC0000
03FF0000
01FF8000
007F8000
001F0000
00000000
00000000
007F0000
03FFC000
0FFFF000
1FFFF800
3F9FF800
7F0FFC00
7E0FFC00
7C0FFC00
380FFC00
000FFC00
000FFC00
03FFFC00
0FFFFC00
3FFFFC00
7FEFFC00
7FCFFC00
FFCFFC00
FFCFFC00
FFCFFE00
FFCFFF80
FFFFFF80
7FFFFF80
7FFFFF00
3FF1FE00
0FC0F800
ENDCHAR
STARTCHAR C0225
ENCODING 225
SWIDTH 562 0
DWIDTH 27 0
BBX 25 35 1 -1
BITMAP
001F8000
003FE000
003FE000
003FE000
00FFC000
01FF8000
01FE0000
00F80000
00000000
00000000
007F0000
03FFC000
0FFFF000
1FFFF800
3F9FF800
7F0FFC00
7E0FFC00
7C0FFC00
380FFC00
000FFC00
000FFC00
03FFFC00
0FFFFC00
3FFFFC00
7FEFFC00
7FCFFC00
FFCFFC00
FFCFFC00
FFCFFE00
FFCFFF80
FFFFFF80
7FFFFF80
7FFFFF00
3FF1FE00
0FC0F800
ENDCHAR
STARTCHAR C0226
ENCODING 226
SWIDTH 562 0
DWIDTH 27 0
BBX 25 36 1 -1
BITMAP
003C0000
00FE0000
01FF8000
03FFC000
07FFE000
0FFFF000
1FC3F800
1F00F800
0E003000
00000000
00000000
007F0000
03FFC000
0FFFF000
1FFFF800
3F9FF800
7F0FFC00
7E0FFC00
7C0FFC00
380FFC00
000FFC00
000FFC00
03FFFC00
0FFFFC00
3FFFFC00
7FEFFC00
7FCFFC00
FFCFFC00
FFCFFC00
FFCFFE00
FFCFFF80
FFFFFF80
7FFFFF80
7FFFFF00
3FF1FE00
0FC0F800
ENDCHAR
STARTCHAR C0227
ENCODING 227
SWIDTH 562 0
DWIDTH 27 0
BBX 25 35 1 -1
BITMAP
07C07000
0FF0F800
0FFCF800
1FFFF800
1FFFF800
1F3FF800
1F0FF000
0E03E000
00000000
00000000
007F0000
03FFC000
0FFFF000
1FFFF800
3F9FF800
7F0FFC00
7E0FFC00
7C0FFC00
380FFC00
000FFC00
000FFC00
03FFFC00
0FFFFC00
3FFFFC00
7FEFFC00
7FCFFC00
FFCFFC00
FFCFFC00
FFCFFE00
FFCFFF80
FFFFFF80
7FFFFF80
7FFFFF00
3FF1FE00
0FC0F800
ENDCHAR
STARTCHAR C0228
ENCODING 228
SWIDTH 562 0
DWIDTH 27 0
BBX 25 34 1 -1
BITMAP
0F807C00
3FE1FF00
7FE3FF00
7FE3FF00
7FE3FF00
7FC3FE00
1F00F800
00000000
00000000
007F0000
03FFC000
0FFFF000
1FFFF800
3F9FF800
7F0FFC00
7E0FFC00
7C0FFC00
380FFC00
000FFC00
000FFC00
03FFFC00
0FFFFC00
3FFFFC00
7FEFFC00
7FCFFC00
FFCFFC00
FFCFFC00
FFCFFE00
FFCFFF80
FFFFFF80
7FFFFF80
7FFFFF00
3FF1FE00
0FC0F800
ENDCHAR
STARTCHAR C0229
ENCODING 229
SWIDTH 562 0
DWIDTH 27 0
BBX 25 37 1 -1
BITMAP
00FF0000
01FF8000
03E7C000
07C3E000
07C3E000
07C3E000
07C3E000
03E7C000
03FF8000
00FF0000
00000000
00000000
007F0000
03FFC000
0FFFF000
1FFFF800
3F9FF800
7F0FFC00
7E0FFC00
7C0FFC00
380FFC00
000FFC00
000FFC00
03FFFC00
0FFFFC00
3FFFFC00
7FEFFC00
7FCFFC00
FFCFFC00
FFCFFC00
FFCFFE00
FFCFFF80
FFFFFF80
7FFFFF80
7FFFFF00
3FF1FE00
0FC0F800
ENDCHAR
STARTCHAR C0230
ENCODING 230
SWIDTH 791 0
DWIDTH 38 0
BBX 35 25 1 -1
BITMAP
007F87F000
03FFFFFC00
0FFFFFFF00
1FFFFFFF80
3F8FFF7F80
7F07FE3FC0
7F07FE3FC0
7E07FE3FE0
3C07FE3FE0
0007FFFFE0
01FFFFFFE0
0FFFFFFFE0
1FFFFFFFC0
3FE7FE0000
7FC7FE0000
FFC7FE0000
FFC7FF0000
FFC7FF0080
FFC7FFC3C0
FFEFFFFFC0
FFFFFFFFC0
7FFFFFFF80
7FFF7FFF00
3FFC1FFC00
0FE007F000
ENDCHAR
STARTCHAR C0231
ENCODING 231
SWIDTH 520 0
DWIDTH 25 0
BBX 22 32 1 -8
BITMAP
007F00
03FFC0
07FFF0
0FFFF8
1FFFF8
3FFFFC
7FE3FC
7FE1FC
7FC1FC
FFC1FC
FFC0F8
FFC0F0
FFC000
FFC000
FFE000
FFE000
7FF030
7FF878
7FFFF8
3FFFF8
1FFFF0
0FFFF0
07FFC0
03FF80
00FC00
007C00
003E00
001F00
007F80
00FF80
00FF80
007E00
ENDCHAR
STARTCHAR C0232
ENCODING 232
SWIDTH 520 0
DWIDTH 25 0
BBX 22 35 1 -1
BITMAP
01F800
07FC00
07FC00
07FC00
03FF00
01FF80
007F80
001F00
000000
000000
00FE00
03FF80
07FFE0
0FFFF0
1FEFF0
3FC7F8
7FC7F8
7FC7FC
7FC7FC
FFFFFC
FFFFFC
FFFFFC
FFFFF8
FFC000
FFC000
FFC000
7FE000
7FF030
7FF878
3FFFF8
3FFFF8
1FFFF0
0FFFE0
03FF80
00FE00
ENDCHAR
STARTCHAR C0233
ENCODING 233
SWIDTH 520 0
DWIDTH 25 0
BBX 22 35 1 -1
BITMAP
001F80
003FE0
003FE0
003FE0
00FFC0
01FF80
01FE00
00F800
000000
000000
00FE00
03FF80
07FFE0
0FFFF0
1FEFF0
3FC7F8
7FC7F8
7FC7FC
7FC7FC
FFFFFC
FFFFFC
FFFFFC
FFFFF8
FFC000
FFC000
FFC000
7FE000
7FF030
7FF878
3FFFF8
3FFFF8
1FFFF0
0FFFE0
03FF80
00FE00
ENDCHAR
STARTCHAR C0234
ENCODING 234
SWIDTH 520 0
DWIDTH 25 0
BBX 22 36 1 -1
BITMAP
003C00
00FE00
01FF80
03FFC0
07FFE0
0FFFF0
1FC3F8
1F00F8
0E0030
000000
000000
00FE00
03FF80
07FFE0
0FFFF0
1FEFF0
3FC7F8
7FC7F8
7FC7FC
7FC7FC
FFFFFC
FFFFFC
FFFFFC
FFFFF8
FFC000
FFC000
FFC000
7FE000
7FF030
7FF878
3FFFF8
3FFFF8
1FFFF0
0FFFE0
03FF80
00FE00
ENDCHAR
STARTCHAR C0235
ENCODING 235
SWIDTH 520 0
DWIDTH 25 0
BBX 24 34 1 -1
BITMAP
0F807C
3FE1FF
7FE3FF
7FE3FF
7FE3FF
7FC3FE
1F00F8
000000
000000
00FE00
03FF80
07FFE0
0FFFF0
1FEFF0
3FC7F8
7FC7F8
7FC7FC
7FC7FC
FFFFFC
FFFFFC
FFFFFC
FFFFF8
FFC000
FFC000
FFC000
7FE000
7FF030
7FF878
3FFFF8
3FFFF8
1FFFF0
0FFFE0
03FF80
00FE00
ENDCHAR
STARTCHAR C0236
ENCODING 236
SWIDTH 354 0
DWIDTH 17 0
BBX 14 35 1 -1
BITMAP
1F80
7FC0
7FC0
7FC0
3FF0
1FF8
07F8
01F0
0000
0000
01F0
0FF0
7FF0
FFF0
FFF0
FFF0
7FF0
3FF0
3FF0
3FF0
3FF0
3FF0
3FF0
3FF0
3FF0
3FF0
3FF0
3FF0
7FF8
7FF8
FFFC
FFFC
FFFC
FFF8
3FF0
ENDCHAR
STARTCHAR C0237
ENCODING 237
SWIDTH 354 0
DWIDTH 17 0
BBX 14 35 1 -1
BITMAP
03F0
07FC
07FC
07FC
1FF8
3FF0
3FC0
1F00
0000
0000
01F0
0FF0
7FF0
FFF0
FFF0
FFF0
7FF0
3FF0
3FF0
3FF0
3FF0
3FF0
3FF0
3FF0
3FF0
3FF0
3FF0
3FF0
7FF8
7FF8
FFFC
FFFC
FFFC
FFF8
3FF0
ENDCHAR
STARTCHAR C0238
ENCODING 238
SWIDTH 354 0
DWIDTH 17 0
BBX 18 36 -1 -1
BITMAP
01E000
07F000
0FFC00
1FFE00
3FFF00
7FFF80
FE1FC0
F807C0
700180
000000
000000
007C00
03FC00
1FFC00
3FFC00
3FFC00
3FFC00
1FFC00
0FFC00
0FFC00
0FFC00
0FFC00
0FFC00
0FFC00
0FFC00
0FFC00
0FFC00
0FFC00
0FFC00
1FFE00
1FFE00
3FFF00
3FFF00
3FFF00
3FFE00
0FFC00
ENDCHAR
STARTCHAR C0239
ENCODING 239
SWIDTH 354 0
DWIDTH 17 0
BBX 22 34 -2 -1
BITMAP
1F01F0
7FC7FC
FFCFFC
FFCFFC
FFCFFC
FF8FF8
3E03E0
000000
000000
003E00
01FE00
0FFE00
1FFE00
1FFE00
1FFE00
0FFE00
07FE00
07FE00
07FE00
07FE00
07FE00
07FE00
07FE00
07FE00
07FE00
07FE00
07FE00
0FFF00
0FFF00
1FFF80
1FFF80
1FFF80
1FFF00
07FE00
ENDCHAR
STARTCHAR C0240
ENCODING 240
SWIDTH 604 0
DWIDTH 29 0
BBX 26 35 1 -1
BITMAP
00060000
0F0F0000
0FDF0000
07FC0000
03FC0000
01FE0000
03FF0000
0FFF8000
0F3FC000
0E1FE000
001FF000
00FFF800
03FFFC00
07FFFE00
1FFFFE00
1FFFFF00
3FE7FF00
7FC3FF80
7FC1FF80
7FC1FFC0
FFC1FFC0
FFC1FFC0
FFC0FFC0
FFE0FFC0
FFE0FFC0
FFE0FFC0
FFF0FF80
7FF0FF80
7FF9FF00
7FFFFF00
3FFFFE00
1FFFFC00
0FFFF000
03FFE000
00FF0000
ENDCHAR
STARTCHAR C0241
ENCODING 241
SWIDTH 666 0
DWIDTH 32 0
BBX 29 35 1 -1
BITMAP
00F80E00
01FE1F00
01FF9F00
03FFFF00
03FFFF00
03E7FF00
03E1FE00
01C07C00
00000000
00000000
00F07C00
07F1FF00
3FF3FF80
FFF3FFC0
FFFFFFC0
FFFFFFC0
7FFFFFE0
3FF8FFE0
3FF0FFE0
3FF07FE0
3FF07FE0
3FF07FE0
3FF07FE0
3FF07FE0
3FF07FE0
3FF07FE0
3FF07FE0
3FF07FE0
7FF8FFF0
7FF8FFF0
FFFDFFF8
FFFDFFF8
FFFDFFF8
7FF8FFF8
3FF07FE0
ENDCHAR
STARTCHAR C0242
ENCODING 242
SWIDTH 604 0
DWIDTH 29 0
BBX 26 35 1 -1
BITMAP
00FC0000
03FE0000
03FE0000
03FE0000
01FF8000
00FFC000
003FC000
000F8000
00000000
00000000
003F8000
01FFF000
03FFF800
0FFFFC00
1FFFFE00
3FFFFF00
3FE7FF80
7FC3FF80
7FC1FF80
FFC1FFC0
FFC1FFC0
FFC1FFC0
FFC0FFC0
FFE0FFC0
FFE0FFC0
FFE0FFC0
FFF0FF80
7FF0FF80
7FF9FF00
3FFFFF00
3FFFFE00
1FFFFC00
0FFFF000
03FFC000
00FF0000
ENDCHAR
STARTCHAR C0243
ENCODING 243
SWIDTH 604 0
DWIDTH 29 0
BBX 26 35 1 -1
BITMAP
000FC000
001FF000
001FF000
001FF000
007FE000
00FFC000
00FF0000
007C0000
00000000
00000000
003F8000
01FFF000
03FFF800
0FFFFC00
1FFFFE00
3FFFFF00
3FE7FF80
7FC3FF80
7FC1FF80
FFC1FFC0
FFC1FFC0
FFC1FFC0
FFC0FFC0
FFE0FFC0
FFE0FFC0
FFE0FFC0
FFF0FF80
7FF0FF80
7FF9FF00
3FFFFF00
3FFFFE00
1FFFFC00
0FFFF000
03FFC000
00FF0000
ENDCHAR
STARTCHAR C0244
ENCODING 244
SWIDTH 604 0
DWIDTH 29 0
BBX 26 36 1 -1
BITMAP
001E0000
007F0000
00FFC000
01FFE000
03FFF000
07FFF800
0FE1FC00
0F807C00
07001800
00000000
00000000
003F8000
01FFF000
03FFF800
0FFFFC00
1FFFFE00
3FFFFF00
3FE7FF80
7FC3FF80
7FC1FF80
FFC1FFC0
FFC1FFC0
FFC1FFC0
FFC0FFC0
FFE0FFC0
FFE0FFC0
FFE0FFC0
FFF0FF80
7FF0FF80
7FF9FF00
3FFFFF00
3FFFFE00
1FFFFC00
0FFFF000
03FFC000
00FF0000
ENDCHAR
STARTCHAR C0245
ENCODING 245
SWIDTH 604 0
DWIDTH 29 0
BBX 26 35 1 -1
BITMAP
03E03800
07F87C00
07FE7C00
0FFFFC00
0FFFFC00
0F9FFC00
0F87F800
0701F000
00000000
00000000
003F8000
01FFF000
03FFF800
0FFFFC00
1FFFFE00
3FFFFF00
3FE7FF80
7FC3FF80
7FC1FF80
FFC1FFC0
FFC1FFC0
FFC1FFC0
FFC0FFC0
FFE0FFC0
FFE0FFC0
FFE0FFC0
FFF0FF80
7FF0FF80
7FF9FF00
3FFFFF00
3FFFFE00
1FFFFC00
0FFFF000
03FFC000
00FF0000
ENDCHAR
STARTCHAR C0246
ENCODING 246
SWIDTH 604 0
DWIDTH 29 0
BBX 26 34 1 -1
BITMAP
07C03E00
1FF0FF80
3FF1FF80
3FF1FF80
3FF1FF80
3FE1FF00
0F807C00
00000000
00000000
003F8000
01FFF000
03FFF800
0FFFFC00
1FFFFE00
3FFFFF00
3FE7FF80
7FC3FF80
7FC1FF80
FFC1FFC0
FFC1FFC0
FFC1FFC0
FFC0FFC0
FFE0FFC0
FFE0FFC0
FFE0FFC0
FFF0FF80
7FF0FF80
7FF9FF00
3FFFFF00
3FFFFE00
1FFFFC00
0FFFF000
03FFC000
00FF0000
ENDCHAR
STARTCHAR C0247
ENCODING 247
SWIDTH 604 0
DWIDTH 29 0
BBX 23 23 3 2
BITMAP
003800
007C00
00FE00
00FE00
00FE00
007C00
003800
000000
000000
3FFFFE
7FFFFE
7FFFFE
FFFFFC
FFFFFC
000000
000000
003800
007C00
00FE00
00FE00
00FE00
007C00
003800
ENDCHAR
STARTCHAR C0248
ENCODING 248
SWIDTH 604 0
DWIDTH 29 0
BBX 27 25 0 -1
BITMAP
001FE000
00FFF860
03FFFCE0
07FFFFC0
0FFFFF80
1FFFFF80
1FF3FF80
3FE1FFC0
3FE0FFC0
3FE0FFE0
7FE3FFE0
7FE7FFE0
7FFEFFE0
7FFC7FE0
7FF87FE0
7FF07FE0
7FF07FC0
3FF87FC0
3FFCFF80
3FFFFF00
3FFFFE00
7FFFFC00
E7FFF800
C3FFE000
007F8000
ENDCHAR
STARTCHAR C0249
ENCODING 249
SWIDTH 687 0
DWIDTH 33 0
BBX 30 35 1 -1
BITMAP
003F0000
00FF8000
00FF8000
00FF8000
007FE000
003FF000
000FF000
0003E000
00000000
00000000
07F007E0
7FF07FF0
FFF0FFF0
FFF0FFF0
FFF0FFF0
7FF07FF0
3FF03FF0
3FF03FF0
3FF03FF0
3FF03FF0
3FF03FF0
3FF03FF0
3FF03FF0
3FF03FF0
3FF03FF0
3FF03FF0
3FF03FF0
3FF07FF0
3FF87FF0
3FFFFFF8
1FFFFFFC
1FFFFFFC
0FFF3FFC
07FE3FF0
01F83F80
ENDCHAR
STARTCHAR C0250
ENCODING 250
SWIDTH 687 0
DWIDTH 33 0
BBX 30 35 1 -1
BITMAP
0003F000
0007FC00
0007FC00
0007FC00
001FF800
003FF000
003FC000
001F0000
00000000
00000000
07F007E0
7FF07FF0
FFF0FFF0
FFF0FFF0
FFF0FFF0
7FF07FF0
3FF03FF0
3FF03FF0
3FF03FF0
3FF03FF0
3FF03FF0
3FF03FF0
3FF03FF0
3FF03FF0
3FF03FF0
3FF03FF0
3FF03FF0
3FF07FF0
3FF87FF0
3FFFFFF8
1FFFFFFC
1FFFFFFC
0FFF3FFC
07FE3FF0
01F83F80
ENDCHAR
STARTCHAR C0251
ENCODING 251
SWIDTH 687 0
DWIDTH 33 0
BBX 30 36 1 -1
BITMAP
00078000
001FC000
003FF000
007FF800
00FFFC00
01FFFE00
03F87F00
03E01F00
01C00600
00000000
00000000
07F007E0
7FF07FF0
FFF0FFF0
FFF0FFF0
FFF0FFF0
7FF07FF0
3FF03FF0
3FF03FF0
3FF03FF0
3FF03FF0
3FF03FF0
3FF03FF0
3FF03FF0
3FF03FF0
3FF03FF0
3FF03FF0
3FF03FF0
3FF07FF0
3FF87FF0
3FFFFFF8
1FFFFFFC
1FFFFFFC
0FFF3FFC
07FE3FF0
01F83F80
ENDCHAR
STARTCHAR C0252
ENCODING 252
SWIDTH 687 0
DWIDTH 33 0
BBX 30 34 1 -1
BITMAP
01F00F80
07FC3FE0
0FFC7FE0
0FFC7FE0
0FFC7FE0
0FF87FC0
03E01F00
00000000
00000000
07F007E0
7FF07FF0
FFF0FFF0
FFF0FFF0
FFF0FFF0
7FF07FF0
3FF03FF0
3FF03FF0
3FF03FF0
3FF03FF0
3FF03FF0
3FF03FF0
3FF03FF0
3FF03FF0
3FF03FF0
3FF03FF0
3FF03FF0
3FF07FF0
3FF87FF0
3FFFFFF8
1FFFFFFC
1FFFFFFC
0FFF3FFC
07FE3FF0
01F83F80
ENDCHAR
STARTCHAR C0253
ENCODING 253
SWIDTH 625 0
DWIDTH 30 0
BBX 29 42 0 -8
BITMAP
0003F000
0007FC00
0007FC00
0007FC00
001FF800
003FF000
003FC000
001F0000
00000000
00000000
0FFC07F0
7FFF1FF8
FFFF1FF8
FFFF1FF8
7FFF1FE0
3FFE1FC0
1FFE1F80
0FFF1F80
0FFF1F00
07FF9F00
07FFFF00
03FFFE00
03FFFE00
01FFFE00
01FFFC00
00FFFC00
00FFF800
00FFF800
007FF800
007FF000
003FF000
003FF000
1E1FE000
3F1FE000
7F1FC000
7F1FC000
7F9F8000
7FFF8000
7FFF0000
3FFE0000
1FF80000
07E00000
ENDCHAR
STARTCHAR C0254
ENCODING 254
SWIDTH 666 0
DWIDTH 32 0
BBX 29 40 1 -8
BITMAP
01F00000
0FF00000
3FF00000
FFF00000
FFF00000
FFF00000
7FF00000
3FF00000
3FF07C00
3FF3FF00
3FF7FFC0
3FFFFFC0
3FFFFFE0
3FFFFFF0
3FFFFFF0
3FF87FF0
3FF83FF8
3FF03FF8
3FF01FF8
3FF01FF8
3FF01FF8
3FF01FF8
3FF01FF8
3FF01FF8
3FF01FF0
3FF03FF0
3FF87FE0
3FFFFFE0
3FFFFFC0
3FFFFF80
3FFFFF00
3FFFFE00
3FF1F800
7FF00000
FFF00000
FFF80000
FFFC0000
7FFC0000
1FFC0000
07F00000
ENDCHAR
STARTCHAR C0255
ENCODING 255
SWIDTH 625 0
DWIDTH 30 0
BBX 29 41 0 -8
BITMAP
01F00F80
07FC3FE0
0FFC7FE0
0FFC7FE0
0FFC7FE0
0FF87FC0
03E01F00
00000000
00000000
0FFC07F0
7FFF1FF8
FFFF1FF8
FFFF1FF8
7FFF1FE0
3FFE1FC0
1FFE1F80
0FFF1F80
0FFF1F00
07FF9F00
07FFFF00
03FFFE00
03FFFE00
01FFFE00
01FFFC00
00FFFC00
00FFF800
00FFF800
007FF800
007FF000
003FF000
003FF000
1E1FE000
3F1FE000
7F1FC000
7F1FC000
7F9F8000
7FFF8000
7FFF0000
3FFE0000
1FF80000
07E00000
ENDCHAR
ENDFONT
